<?xml version="1.0" standalone="no"?>
<!DOCTYPE svg PUBLIC "-//W3C//DTD SVG 20010904//EN"
 "http://www.w3.org/TR/2001/REC-SVG-20010904/DTD/svg10.dtd">
<svg version="1.0" xmlns="http://www.w3.org/2000/svg"
 width="1280.000000pt" height="1280.000000pt" viewBox="0 0 1280.000000 1280.000000"
 preserveAspectRatio="xMidYMid meet">
<g transform="translate(0.000000,1380.000000) scale(0.100000,-0.100000)"
fill="#00bcd4" stroke="none">
<path d="M3347 12794 c-12 -12 -8 -42 6 -47 21 -8 39 8 35 29 -3 19 -29 30
-41 18z"/>
<path d="M3264 12740 c-33 -13 -54 -50 -54 -96 0 -35 5 -47 35 -73 33 -29 34
-31 13 -31 -33 0 -85 -35 -108 -72 -38 -63 -21 -140 42 -193 29 -24 38 -27 94
-23 57 4 63 2 66 -17 6 -31 -34 -49 -56 -24 -57 67 -161 -9 -109 -79 11 -15
29 -28 40 -30 12 -2 23 -12 26 -24 4 -12 10 -17 17 -13 7 4 10 15 7 25 -2 9 4
22 14 29 11 6 19 18 19 26 0 12 4 13 19 4 26 -17 51 -4 51 26 0 16 6 25 15 25
8 0 15 -8 15 -19 0 -40 60 -53 74 -15 8 22 -11 54 -34 54 -12 0 -20 8 -22 23
-2 12 -13 26 -24 31 l-21 10 20 34 c41 70 14 174 -53 204 -33 14 -39 28 -14
28 8 0 29 13 45 29 79 79 -12 204 -117 161z"/>
<path d="M3108 12579 c-21 -12 -24 -49 -5 -68 10 -10 9 -11 -4 -6 -24 9 -51
-32 -38 -57 20 -37 77 -10 66 31 -3 14 2 21 18 25 32 8 42 42 19 67 -19 21
-31 23 -56 8z"/>
<path d="M3040 12395 c-23 -28 9 -72 45 -59 36 14 24 74 -15 74 -10 0 -23 -7
-30 -15z"/>
<path d="M3095 12317 c-10 -8 -16 -23 -13 -38 2 -19 9 -24 33 -24 25 0 31 4
33 27 4 34 -26 54 -53 35z"/>
<path d="M3026 12247 c-28 -21 -18 -69 18 -82 24 -8 31 -6 47 14 24 29 24 36
-1 61 -23 23 -39 25 -64 7z"/>
<path d="M3105 12154 c-19 -20 -16 -43 8 -58 37 -23 77 35 41 61 -23 17 -29
16 -49 -3z"/>
<path d="M3462 12121 c-20 -12 -10 -46 13 -46 14 0 20 7 20 24 0 27 -13 35
-33 22z"/>
<path d="M3055 12078 c-27 -15 -35 -28 -35 -59 0 -29 27 -59 55 -59 17 0 17
-1 -1 -21 -14 -15 -16 -24 -8 -37 14 -23 48 -27 63 -8 16 19 5 56 -16 56 -14
0 -14 3 3 18 18 18 19 18 32 0 16 -23 50 -20 66 5 16 25 -5 52 -39 52 -20 1
-30 8 -36 23 -5 12 -20 27 -34 32 -31 12 -25 12 -50 -2z"/>
<path d="M3371 12055 c-113 -35 -172 -170 -122 -280 10 -22 25 -46 34 -53 14
-12 14 -15 -1 -31 -9 -9 -25 -15 -36 -13 -20 5 -37 -14 -29 -35 6 -16 35 -17
51 -1 19 19 27 0 9 -20 -25 -28 -22 -84 6 -110 33 -31 91 -30 121 3 19 21 25
23 30 10 3 -8 16 -15 28 -15 22 0 23 -3 19 -57 -5 -80 11 -124 64 -172 41 -38
44 -43 30 -57 -21 -21 -19 -40 7 -58 31 -22 61 -4 56 35 -3 19 0 29 8 29 17 0
27 -17 14 -25 -14 -9 -13 -48 2 -63 19 -19 66 -15 78 7 14 28 13 38 -10 59
-21 19 -21 19 12 26 18 3 49 20 70 36 l37 30 3 -28 c2 -18 -4 -33 -17 -44 -19
-16 -19 -17 -2 -35 18 -17 19 -17 37 5 10 12 29 22 43 22 35 0 61 33 54 69 -4
20 -2 31 8 35 20 7 19 45 0 52 -19 8 -48 -15 -41 -31 3 -8 -2 -11 -14 -8 -10
3 -27 0 -39 -6 -20 -11 -20 -11 -4 26 10 25 14 57 11 94 -6 77 -40 128 -109
163 -86 43 -174 31 -238 -33 -37 -37 -37 -37 -53 -16 -13 16 -20 18 -35 8 -17
-10 -21 -7 -32 24 -9 25 -23 39 -47 49 -19 8 -39 12 -44 9 -6 -4 -10 1 -10 10
0 11 5 15 14 12 82 -32 120 -32 199 -2 12 5 17 2 17 -8 0 -20 14 -29 34 -21
21 8 21 40 0 48 -15 6 -15 9 4 29 99 105 48 291 -92 332 -59 18 -68 18 -125 0z"/>
<path d="M3151 11856 c-19 -22 -4 -56 23 -56 32 0 53 26 39 48 -14 23 -47 27
-62 8z"/>
<path d="M3142 11774 c-41 -28 -16 -94 36 -94 21 0 52 34 52 57 0 17 -36 53
-53 53 -7 0 -23 -7 -35 -16z"/>
<path d="M3640 11740 c-11 -11 -20 -27 -20 -35 0 -16 34 -55 48 -55 20 0 52
34 52 55 0 21 -32 55 -52 55 -5 0 -17 -9 -28 -20z"/>
<path d="M2790 11529 c-14 -6 -28 -17 -33 -25 -5 -9 -16 -12 -33 -8 -20 5 -24
2 -24 -15 0 -14 6 -21 20 -21 13 0 20 -7 20 -19 0 -36 35 -66 78 -66 37 0 39
-1 30 -19 -6 -10 -8 -38 -6 -61 5 -38 3 -42 -13 -38 -47 13 -71 -69 -26 -86
27 -11 61 8 65 37 3 19 5 19 33 5 18 -9 40 -12 59 -8 l30 7 -29 -30 c-58 -57
-50 -159 14 -208 l35 -26 -32 -17 c-65 -32 -73 -108 -16 -156 43 -36 82 -33
125 10 32 32 35 40 30 73 -4 21 -17 46 -31 58 l-24 21 37 11 c47 14 91 60 100
104 4 19 13 33 21 33 8 0 15 7 15 15 0 8 -8 14 -17 14 -10 -1 -18 4 -18 12 0
24 -60 82 -96 94 -20 7 -49 9 -66 6 l-29 -6 20 26 c31 40 28 96 -8 136 -26 29
-35 33 -78 32 l-49 0 4 31 c3 23 -3 39 -20 58 -28 31 -55 39 -88 26z"/>
<path d="M2684 11416 c-9 -24 4 -48 23 -44 12 2 18 12 18 28 0 29 -32 41 -41
16z"/>
<path d="M3341 11374 c-29 -37 -26 -70 9 -106 26 -25 36 -29 63 -24 98 19 85
156 -15 156 -28 0 -42 -7 -57 -26z"/>
<path d="M2696 11341 c-33 -36 10 -94 53 -72 27 15 34 41 16 67 -19 29 -46 31
-69 5z"/>
<path d="M4050 11255 c-14 -16 -5 -35 16 -35 8 0 14 -7 14 -15 0 -8 7 -15 15
-15 18 0 19 8 3 43 -16 33 -33 40 -48 22z"/>
<path d="M3500 11225 c-7 -8 -9 -15 -4 -16 5 -1 -2 -4 -15 -8 -51 -14 -53 -72
-2 -79 12 -2 19 -8 15 -13 -12 -20 7 -60 32 -69 32 -13 62 2 70 34 9 36 -12
66 -46 66 -22 0 -29 5 -32 23 -2 12 3 27 11 33 15 11 9 44 -7 44 -5 0 -15 -7
-22 -15z"/>
<path d="M3966 11194 c-19 -18 -21 -55 -4 -72 19 -19 66 -15 78 7 14 28 13 38
-10 61 -24 24 -43 25 -64 4z"/>
<path d="M4146 11173 c-12 -12 -6 -33 9 -33 8 0 15 6 15 14 0 17 -14 28 -24
19z"/>
<path d="M2850 11142 c-19 -16 -21 -22 -11 -40 13 -24 40 -29 59 -10 35 35
-10 81 -48 50z"/>
<path d="M3791 11131 c-16 -29 -14 -46 9 -66 41 -37 102 17 73 64 -16 25 -69
26 -82 2z"/>
<path d="M3956 11080 c-64 -20 -146 -104 -146 -152 0 -10 -4 -18 -10 -18 -5 0
-10 5 -10 10 0 6 -11 15 -24 22 -22 9 -23 13 -10 25 20 20 18 49 -6 73 -27 27
-55 25 -79 -6 -27 -35 -27 -41 8 -73 23 -22 26 -29 15 -39 -22 -20 -16 -59 11
-80 14 -11 25 -29 25 -41 0 -25 26 -39 43 -22 8 8 8 17 1 29 -8 13 -6 21 7 34
20 19 29 14 29 -17 0 -30 46 -97 85 -123 100 -69 239 -41 299 60 l25 42 10
-26 c5 -14 20 -33 33 -42 28 -20 92 -21 108 -1 8 9 21 13 36 9 18 -5 24 -2 24
10 0 9 -6 16 -13 16 -9 0 -12 11 -9 35 3 28 -1 40 -26 65 -17 16 -41 30 -54
30 -19 0 -24 5 -23 28 0 22 -4 27 -25 27 -29 0 -41 -33 -17 -49 12 -10 11 -14
-8 -28 -23 -17 -23 -17 -29 26 -19 125 -151 211 -270 176z"/>
<path d="M4200 11075 c-18 -22 -8 -50 19 -50 32 0 49 28 32 49 -17 20 -35 20
-51 1z"/>
<path d="M2820 11025 c-28 -34 24 -80 55 -48 18 18 19 35 3 51 -16 16 -43 15
-58 -3z"/>
<path d="M3165 10966 c-27 -20 -13 -66 21 -66 13 0 27 7 30 15 4 8 15 15 25
15 11 0 19 7 19 16 0 9 -7 14 -17 13 -10 -2 -28 2 -39 9 -17 9 -25 8 -39 -2z"/>
<path d="M3296 10880 c-15 -16 -25 -33 -21 -39 3 -7 -2 -11 -14 -11 -42 0
-103 -33 -130 -71 -25 -34 -29 -36 -43 -22 -12 12 -20 13 -37 4 -39 -21 -15
-80 27 -67 16 5 20 0 25 -29 3 -19 16 -49 28 -66 28 -40 101 -73 141 -65 16 3
27 2 23 -3 -9 -16 6 -41 25 -41 22 0 34 28 20 45 -7 8 -2 19 16 36 43 40 57
76 52 138 -5 50 -9 59 -50 96 -39 35 -43 43 -34 60 6 11 15 23 20 26 10 8 1
39 -11 39 -4 0 -21 -14 -37 -30z"/>
<path d="M3410 10873 c-19 -7 -40 -33 -40 -50 0 -18 37 -53 55 -53 19 0 55 36
55 55 0 16 -35 56 -47 54 -5 0 -15 -3 -23 -6z"/>
<path d="M3450 10750 c-28 -28 -26 -74 5 -98 l25 -20 -31 -12 c-17 -7 -42 -30
-56 -51 -22 -33 -25 -47 -21 -94 5 -59 28 -94 80 -121 39 -20 107 -17 146 6
43 26 76 99 68 148 -3 20 -1 41 5 48 14 18 1 36 -20 29 -11 -3 -25 3 -36 15
-10 11 -35 25 -56 30 -38 11 -38 11 -19 30 28 28 25 64 -6 89 -33 26 -58 27
-84 1z"/>
<path d="M4388 10724 c-4 -3 -5 -11 -3 -17 2 -7 -17 -25 -42 -42 -129 -84
-118 -280 20 -352 26 -13 28 -17 14 -25 -37 -20 -9 -86 31 -74 17 6 19 2 14
-44 -8 -81 29 -137 100 -155 14 -4 28 -16 31 -27 6 -21 27 -16 27 7 0 7 10 17
23 20 12 4 32 17 45 28 l22 20 0 -22 c0 -12 11 -33 24 -46 l24 -23 -24 -6
c-50 -13 -56 -81 -9 -112 42 -27 95 4 95 57 0 18 -7 33 -20 41 -23 15 -26 28
-7 28 8 0 22 9 31 19 40 44 -15 128 -67 104 -24 -11 -24 -11 -19 36 7 77 -29
128 -107 151 -38 11 -98 -4 -128 -33 -13 -11 -23 -16 -23 -10 0 6 -2 18 -6 26
-4 11 6 16 40 19 66 8 117 38 154 92 27 41 32 57 32 108 0 121 -83 208 -200
208 -32 0 -49 4 -47 11 2 13 -16 23 -25 13z"/>
<path d="M4160 10685 c0 -8 7 -15 15 -15 8 0 15 -9 15 -20 0 -26 27 -37 46
-18 18 18 8 48 -16 48 -11 0 -22 5 -25 10 -10 15 -35 12 -35 -5z"/>
<path d="M3842 10678 c-29 -29 3 -77 39 -57 12 6 19 4 23 -6 3 -8 14 -15 24
-15 15 0 18 -5 14 -25 -6 -32 21 -73 53 -81 16 -4 25 -13 25 -25 0 -24 27 -36
43 -20 8 8 9 16 0 29 -8 14 -6 23 8 41 26 32 24 67 -6 96 -25 26 -59 32 -85
16 -10 -7 -18 -4 -28 11 -8 11 -22 18 -32 15 -9 -2 -22 4 -29 14 -13 22 -32
24 -49 7z"/>
<path d="M4174 10566 c-3 -9 -12 -16 -20 -16 -8 0 -14 -6 -14 -13 0 -7 -9 -20
-20 -30 -11 -9 -20 -24 -20 -32 0 -8 9 -20 20 -27 26 -16 26 -31 0 -23 -14 4
-22 1 -26 -10 -8 -21 10 -40 28 -29 7 5 22 9 33 9 17 0 20 7 22 49 1 28 -2 55
-7 61 -11 13 0 30 20 30 18 0 20 37 3 42 -7 3 -16 -2 -19 -11z"/>
<path d="M3692 10405 c-1 -48 2 -57 23 -71 23 -15 27 -15 50 0 14 9 25 23 25
31 0 18 12 19 27 4 18 -18 56 -6 72 23 14 24 14 28 -3 47 -26 28 -60 26 -84
-4 -12 -15 -23 -21 -27 -15 -3 5 -17 10 -30 10 -12 0 -25 7 -29 15 -12 31 -23
13 -24 -40z"/>
<path d="M4732 10418 c-7 -7 -12 -19 -12 -28 0 -13 -7 -15 -29 -12 -53 8 -77
-69 -27 -87 32 -13 57 -1 63 30 4 21 11 28 27 26 11 -1 24 -10 28 -19 8 -20
43 -24 54 -6 4 6 -2 18 -13 27 -11 9 -18 22 -16 28 13 38 -46 70 -75 41z"/>
<path d="M4177 10364 c-15 -15 -7 -63 12 -69 33 -10 52 5 49 39 -2 25 -8 32
-28 34 -14 2 -29 0 -33 -4z"/>
<path d="M2884 10339 c-19 -22 -13 -43 19 -63 12 -8 21 -5 36 8 26 23 26 38 3
59 -24 22 -35 21 -58 -4z"/>
<path d="M2990 10325 c0 -8 4 -15 9 -15 6 0 7 -15 4 -34 -10 -64 70 -103 117
-56 27 27 25 66 -5 95 -26 27 -46 31 -76 15 -13 -7 -19 -7 -19 0 0 5 -7 10
-15 10 -8 0 -15 -7 -15 -15z"/>
<path d="M3415 10330 c-4 -7 -3 -16 3 -22 14 -14 45 -2 40 15 -6 16 -34 21
-43 7z"/>
<path d="M3630 10317 c-13 -7 -31 -23 -38 -37 -30 -54 28 -116 88 -93 28 10
28 10 23 -27 -9 -67 46 -138 116 -147 36 -5 40 -8 35 -28 -6 -23 17 -55 40
-55 35 0 49 61 19 79 -17 9 -17 11 2 25 25 19 31 20 39 1 3 -8 12 -15 20 -15
7 0 16 -9 19 -21 4 -15 12 -20 29 -17 30 4 33 51 3 56 -11 3 -24 10 -28 18 -4
8 -15 14 -22 14 -18 0 -18 -1 -4 39 25 70 -20 148 -99 171 -38 12 -46 11 -91
-12 l-49 -24 -6 28 c-3 17 -16 33 -35 43 -36 18 -30 18 -61 2z"/>
<path d="M4902 10317 c-7 -8 -8 -17 -4 -22 4 -4 -7 -4 -24 -1 -25 6 -37 2 -61
-18 -28 -23 -31 -24 -47 -8 -23 23 -51 4 -51 -34 0 -24 5 -30 28 -32 18 -2 29
2 33 13 5 13 10 10 25 -14 15 -25 25 -31 53 -31 24 0 39 7 49 20 8 12 20 18
30 15 8 -4 18 -1 22 5 4 7 -1 14 -13 17 -29 7 -36 41 -8 45 29 4 30 52 0 56
-11 2 -26 -3 -32 -11z"/>
<path d="M4266 10258 c-20 -28 -4 -58 29 -58 33 0 49 30 29 58 -8 12 -21 22
-29 22 -8 0 -21 -10 -29 -22z"/>
<path d="M3988 10249 c-25 -14 -22 -30 11 -62 32 -30 51 -35 51 -12 0 8 -4 15
-9 15 -5 0 -7 9 -4 20 5 19 -11 50 -26 50 -3 0 -14 -5 -23 -11z"/>
<path d="M3154 10236 c-10 -26 4 -48 28 -44 17 2 23 10 23 28 0 18 -6 26 -23
28 -13 2 -25 -3 -28 -12z"/>
<path d="M2890 10210 c-15 -28 4 -60 36 -60 31 0 54 41 34 65 -18 21 -57 19
-70 -5z"/>
<path d="M4089 10204 c-17 -21 0 -49 32 -49 27 0 37 28 19 50 -16 19 -34 19
-51 -1z"/>
<path d="M4893 10160 c-97 -44 -112 -172 -28 -238 25 -20 25 -21 5 -27 -31
-10 -25 -69 8 -73 31 -5 55 17 49 45 -4 20 0 23 24 23 31 0 99 29 99 42 0 4 4
8 10 8 5 0 7 -7 4 -15 -10 -25 17 -75 48 -91 37 -19 78 -11 109 22 64 68 -17
182 -101 141 l-28 -14 -4 58 c-3 48 -10 65 -33 89 -25 26 -78 50 -110 50 -5 0
-29 -9 -52 -20z"/>
<path d="M3020 10155 c-16 -20 -9 -47 17 -60 19 -10 20 -13 7 -35 -7 -14 -13
-47 -14 -74 0 -43 4 -53 38 -86 50 -50 96 -60 154 -31 46 22 78 64 78 101 0
17 5 21 19 17 22 -6 51 9 51 27 0 24 -29 41 -50 29 -15 -10 -21 -6 -42 26 -22
33 -23 39 -10 48 21 13 8 43 -18 43 -17 0 -24 -9 -22 -31 1 -3 -21 -4 -47 -1
-27 2 -58 -1 -70 -7 -18 -10 -21 -9 -21 7 0 38 -46 56 -70 27z"/>
<path d="M4135 10120 c-3 -5 -3 -14 0 -20 3 -5 -1 -20 -9 -32 -21 -29 -20 -57
2 -81 9 -10 17 -31 17 -46 0 -20 6 -27 24 -29 20 -3 23 0 19 21 -4 18 0 27 13
30 9 3 25 17 35 32 23 35 10 75 -31 94 -17 8 -34 20 -38 28 -9 15 -23 17 -32
3z"/>
<path d="M5134 10103 c-3 -10 -10 -26 -16 -37 -6 -12 -6 -22 1 -29 7 -7 12 -5
17 6 3 9 12 17 20 17 20 0 36 34 22 48 -17 17 -38 15 -44 -5z"/>
<path d="M2906 10075 c-9 -24 4 -45 29 -45 25 0 38 21 29 45 -4 8 -16 15 -29
15 -13 0 -25 -7 -29 -15z"/>
<path d="M5230 10036 c0 -8 4 -17 9 -20 5 -3 7 -15 4 -25 -3 -13 4 -29 19 -44
19 -19 22 -28 14 -40 -22 -34 28 -73 59 -47 19 16 19 44 0 60 -14 12 -14 15 2
32 13 14 15 25 7 46 -8 22 -16 28 -47 30 -20 2 -37 7 -37 13 0 5 -7 9 -15 9
-8 0 -15 -6 -15 -14z"/>
<path d="M4292 10028 c-7 -7 -12 -21 -12 -33 0 -12 5 -26 12 -33 7 -7 21 -12
33 -12 12 0 26 5 33 12 7 7 12 21 12 33 0 12 -5 26 -12 33 -7 7 -21 12 -33 12
-12 0 -26 -5 -33 -12z"/>
<path d="M3348 9974 c-48 -26 -63 -87 -33 -132 15 -21 15 -22 -12 -16 -38 7
-94 -31 -107 -73 -18 -64 32 -123 104 -123 16 0 30 -4 30 -10 0 -5 7 -10 16
-10 9 0 14 7 13 18 -2 9 3 28 10 41 12 21 15 22 23 8 11 -21 47 -22 54 -2 9
22 -15 47 -37 40 -15 -5 -19 -1 -19 17 0 13 -7 34 -16 46 -15 22 -14 22 21 22
74 0 122 91 77 146 -35 44 -78 54 -124 28z"/>
<path d="M4000 9935 c-26 -32 13 -81 48 -59 24 16 27 45 6 61 -23 17 -39 16
-54 -2z"/>
<path d="M4320 9913 c-19 -8 -45 -15 -57 -14 -26 1 -40 -17 -19 -25 13 -5 13
-10 -1 -41 -19 -48 -10 -94 28 -138 58 -66 146 -68 205 -5 l27 28 22 -31 c18
-27 27 -32 63 -32 23 0 42 -1 42 -2 0 -2 -9 -17 -20 -35 -11 -18 -20 -44 -20
-57 0 -23 -1 -24 -13 -6 -10 13 -21 16 -39 12 -18 -5 -28 -2 -32 8 -7 19 -35
19 -42 0 -8 -20 13 -45 32 -38 9 3 14 -2 14 -16 0 -29 48 -41 66 -16 8 10 15
17 16 14 2 -2 10 -17 18 -34 9 -16 31 -40 50 -53 30 -20 44 -23 93 -19 31 3
57 1 57 -4 0 -5 7 -9 16 -9 12 0 15 6 11 21 -3 12 4 34 19 56 78 115 -52 267
-176 205 -22 -11 -40 -16 -40 -11 0 4 5 11 10 14 6 3 10 21 10 39 0 62 -67 96
-118 60 -20 -14 -22 -14 -22 3 0 10 -9 37 -20 61 -15 33 -29 47 -62 62 -52 24
-72 24 -118 3z"/>
<path d="M9122 9888 c2 -15 11 -24 25 -26 14 -2 20 -8 16 -18 -10 -27 25 -64
60 -64 18 0 37 4 43 10 7 7 15 -2 26 -25 l16 -35 -37 7 c-47 10 -106 10 -155
0 l-38 -8 16 23 c25 35 20 76 -13 109 -38 38 -88 40 -123 4 -25 -25 -26 -25
-31 -4 -8 31 -52 22 -52 -11 0 -21 5 -25 28 -25 21 1 27 -4 27 -22 0 -21 -1
-21 -27 -7 -37 18 -45 18 -77 -7 -30 -24 -34 -63 -10 -97 31 -45 124 -16 124
38 l0 20 20 -20 c11 -11 32 -20 46 -20 24 0 23 -2 -23 -47 -71 -69 -97 -130
-98 -223 0 -65 4 -85 31 -138 20 -42 26 -62 18 -62 -7 0 -18 -9 -24 -19 -14
-28 13 -55 41 -41 10 6 19 17 19 25 0 10 14 4 44 -18 23 -19 64 -39 90 -47 59
-16 170 -9 216 15 l34 18 -28 -33 c-103 -123 -106 -297 -8 -415 39 -47 98 -86
160 -106 31 -10 51 -18 45 -18 -19 -1 -16 -51 3 -58 8 -3 23 2 32 11 14 13 14
20 4 36 -11 19 -10 20 27 20 l40 0 -17 -29 c-20 -36 -6 -76 33 -91 81 -31 134
91 54 124 l-31 13 34 14 c49 20 116 86 145 144 32 61 42 164 23 230 -7 25 -29
69 -50 99 -36 51 -36 53 -16 62 28 12 33 50 8 65 -18 11 -18 13 -2 29 10 10
19 23 22 30 2 8 15 1 35 -19 43 -42 93 -43 134 -2 54 55 28 143 -47 157 -25 5
-32 10 -25 17 17 17 13 72 -7 90 -40 36 -112 6 -112 -46 0 -22 31 -59 56 -68
6 -2 1 -18 -13 -38 -14 -21 -23 -28 -23 -17 0 20 -56 56 -87 56 -12 0 -35 -12
-52 -26 -25 -21 -31 -34 -31 -64 0 -48 33 -89 73 -92 19 -2 26 -7 22 -16 -3
-8 -5 -20 -5 -28 0 -12 -7 -11 -37 5 -88 44 -204 47 -283 6 l-30 -16 35 46
c19 26 38 57 41 71 7 29 9 29 34 4 11 -11 29 -20 40 -20 25 0 60 34 60 58 0
40 -69 69 -97 41 -7 -7 -12 10 -15 58 -6 83 -39 154 -96 205 l-40 36 29 4 c24
4 29 1 29 -17 0 -27 18 -45 47 -45 25 0 48 33 39 56 -7 18 28 54 52 54 10 0
22 4 28 10 6 6 13 3 21 -9 10 -16 6 -20 -27 -35 -102 -45 -112 -197 -17 -257
49 -31 137 -23 177 16 79 76 55 210 -45 246 -30 11 -32 15 -23 35 15 33 -6 57
-44 52 -21 -3 -32 1 -39 14 -21 38 -97 8 -86 -34 3 -11 -3 -28 -14 -39 -28
-28 -40 -23 -23 9 18 34 18 46 -2 83 -28 55 -111 71 -150 28 -22 -24 -30 -24
-37 1 -6 24 -53 37 -79 21 -15 -9 -20 -8 -24 4 -4 8 -17 15 -31 15 -20 0 -24
-4 -21 -22z"/>
<path d="M3532 9870 c-74 -34 -100 -128 -55 -198 13 -21 13 -25 -3 -36 -10 -8
-15 -20 -11 -30 9 -22 48 -21 54 3 4 17 9 18 34 9 25 -9 27 -12 14 -25 -20
-19 -19 -29 6 -54 19 -19 22 -19 43 -5 23 15 23 14 29 -42 17 -164 215 -242
341 -133 14 12 20 13 23 4 8 -22 43 -15 43 7 0 11 -7 20 -15 20 -18 0 -19 5
-3 33 51 97 9 226 -93 277 -51 26 -132 26 -184 0 -22 -11 -40 -20 -41 -20 -1
0 3 16 9 35 33 109 -84 205 -191 155z m125 -270 c-10 -27 -12 -28 -28 -12 -15
16 -15 18 5 29 32 18 35 16 23 -17z"/>
<path d="M4074 9846 c-3 -8 -4 -23 -2 -33 5 -25 61 -25 66 0 7 37 -51 67 -64
33z"/>
<path d="M4762 9848 c-7 -7 -12 -24 -12 -38 0 -34 17 -50 52 -50 27 0 48 23
48 54 0 37 -61 61 -88 34z"/>
<path d="M5295 9835 c-22 -8 -58 -33 -80 -57 -22 -23 -47 -43 -55 -43 -8 0
-15 -7 -15 -15 0 -8 6 -14 14 -12 9 2 11 -3 7 -13 -3 -9 -6 -32 -6 -52 0 -31
-1 -33 -16 -19 -18 19 -28 20 -55 6 -22 -12 -26 -59 -7 -78 18 -18 56 -14 70
7 10 17 14 15 42 -28 34 -50 88 -86 146 -95 42 -7 131 16 150 39 19 23 25 18
25 -25 1 -53 31 -84 82 -84 21 0 46 4 56 8 12 6 17 4 17 -8 0 -19 33 -38 54
-30 37 14 26 74 -15 74 -14 0 -18 8 -17 41 1 66 -58 111 -116 89 -14 -5 -26
-8 -26 -7 0 1 7 24 15 51 33 108 -25 218 -134 255 -45 15 -87 13 -136 -4z"/>
<path d="M3126 9824 c-20 -20 -20 -38 0 -59 20 -20 42 -16 60 10 12 18 11 24
-2 43 -18 26 -37 28 -58 6z"/>
<path d="M5000 9813 c-84 -31 -87 -145 -4 -179 30 -12 39 -12 69 0 46 20 72
71 57 114 -8 22 -7 32 1 35 6 2 8 11 4 21 -6 14 -10 16 -21 7 -10 -8 -21 -8
-40 -1 -29 11 -43 11 -66 3z"/>
<path d="M8744 9806 c-10 -26 4 -48 28 -44 17 2 23 10 23 28 0 18 -6 26 -23
28 -13 2 -25 -3 -28 -12z"/>
<path d="M8642 9768 c-17 -17 -15 -48 3 -54 18 -7 45 12 45 32 0 20 -34 36
-48 22z"/>
<path d="M5590 9735 c-26 -32 13 -81 48 -59 34 22 22 74 -18 74 -10 0 -23 -7
-30 -15z"/>
<path d="M8714 9726 c-10 -26 4 -48 28 -44 17 2 23 10 23 28 0 18 -6 26 -23
28 -13 2 -25 -3 -28 -12z"/>
<path d="M8527 9713 c-4 -3 -7 -12 -7 -20 0 -15 26 -18 34 -4 7 11 -18 33 -27
24z"/>
<path d="M5710 9683 c-82 -30 -80 -148 4 -169 33 -8 78 15 94 49 19 40 7 85
-31 108 -33 20 -42 21 -67 12z"/>
<path d="M8585 9665 c-14 -13 -25 -28 -25 -33 0 -6 -8 -9 -17 -8 -10 0 -18 -6
-18 -14 0 -8 8 -14 18 -14 9 1 17 -5 17 -13 0 -8 13 -28 29 -44 37 -37 79 -38
120 -4 l30 26 21 -21 c11 -11 31 -20 44 -20 14 0 28 -4 31 -10 10 -15 35 -12
35 5 0 8 -4 15 -9 15 -6 0 -7 16 -4 35 10 62 -43 96 -95 59 -20 -14 -22 -14
-22 1 0 32 -46 65 -90 65 -30 0 -47 -6 -65 -25z"/>
<path d="M9822 9658 c-34 -34 6 -90 48 -68 35 19 20 80 -20 80 -9 0 -21 -5
-28 -12z"/>
<path d="M8456 9653 c-12 -12 -6 -33 9 -33 8 0 15 6 15 14 0 17 -14 28 -24 19z"/>
<path d="M8884 9649 c-10 -17 13 -36 27 -22 12 12 4 33 -11 33 -5 0 -12 -5
-16 -11z"/>
<path d="M3354 9595 c-9 -23 3 -45 25 -45 20 0 37 32 26 50 -9 15 -45 12 -51
-5z"/>
<path d="M8446 9584 c-24 -23 -20 -53 9 -66 19 -8 28 -8 40 2 21 18 19 57 -4
70 -25 13 -27 13 -45 -6z"/>
<path d="M4122 9567 c-9 -10 -9 -18 1 -31 17 -23 49 -11 45 18 -4 25 -30 32
-46 13z"/>
<path d="M4901 9561 c-14 -25 -5 -48 20 -56 27 -9 51 13 47 44 -4 34 -51 43
-67 12z"/>
<path d="M3460 9555 c-15 -18 -6 -61 16 -69 24 -9 54 12 54 37 0 43 -44 63
-70 32z"/>
<path d="M5860 9553 c-80 -31 -90 -136 -16 -183 20 -13 25 -20 14 -20 -9 0
-18 6 -21 13 -4 9 -7 9 -17 0 -10 -9 -10 -15 -1 -26 9 -12 7 -16 -10 -20 -12
-3 -18 -10 -14 -17 4 -6 13 -9 20 -6 8 3 19 -2 25 -10 15 -17 42 -18 58 -2 18
18 15 55 -5 67 -15 9 -14 10 10 11 33 0 87 48 87 78 0 13 6 19 18 18 9 0 17 6
17 14 0 8 -7 15 -16 15 -8 0 -28 15 -45 33 -29 32 -74 47 -104 35z"/>
<path d="M8326 9531 c-21 -23 -14 -57 14 -66 23 -7 36 -1 50 25 8 15 6 24 -10
40 -25 25 -32 25 -54 1z"/>
<path d="M8524 9529 c-3 -6 -2 -15 2 -19 12 -12 38 5 30 19 -9 14 -23 14 -32
0z"/>
<path d="M8683 9495 c-7 -20 2 -29 21 -22 9 4 13 13 10 22 -8 19 -23 19 -31 0z"/>
<path d="M3558 9475 c-8 -19 -8 -28 2 -40 28 -34 86 -6 72 35 -13 37 -58 40
-74 5z"/>
<path d="M4086 9479 c-58 -45 -5 -148 63 -123 l28 11 -5 -47 c-3 -31 1 -57 12
-78 15 -28 15 -32 0 -40 -21 -11 -14 -46 9 -50 12 -3 20 4 24 17 6 23 18 27
28 11 3 -5 31 -10 60 -10 46 0 59 5 89 30 67 59 70 144 7 204 -49 47 -136 51
-183 8 -17 -14 -18 -13 -18 16 0 21 -8 37 -26 51 -34 27 -54 26 -88 0z"/>
<path d="M4966 9484 c-36 -35 2 -92 49 -74 14 5 26 5 33 -2 16 -16 42 -2 42
22 0 15 -7 20 -25 20 -15 0 -25 6 -25 15 0 14 -29 35 -49 35 -5 0 -17 -7 -25
-16z"/>
<path d="M8775 9487 c-26 -20 -13 -67 18 -67 43 0 60 35 31 64 -19 19 -25 20
-49 3z"/>
<path d="M8473 9480 c-140 -28 -245 -154 -247 -296 -1 -49 -4 -60 -14 -52 -7
6 -10 19 -7 29 7 23 -15 36 -29 18 -6 -8 -25 -21 -43 -28 -60 -24 -61 -97 -1
-130 34 -20 75 -2 91 38 l11 29 22 -47 c90 -195 356 -235 503 -76 39 42 41 43
41 19 0 -34 51 -84 85 -84 57 0 94 36 95 93 0 53 -35 87 -89 87 -22 0 -43 -4
-46 -10 -15 -24 -21 -6 -11 34 9 39 13 44 36 43 20 -2 25 2 25 23 0 21 -4 25
-27 23 -23 -1 -28 2 -28 21 0 44 -32 115 -72 161 -49 56 -106 90 -176 104 -59
12 -60 12 -119 1z"/>
<path d="M8217 9424 c-14 -14 -7 -54 12 -64 28 -15 71 21 55 47 -11 19 -54 29
-67 17z"/>
<path d="M8812 9408 c-25 -25 0 -64 32 -52 21 8 21 50 0 58 -20 8 -18 8 -32
-6z"/>
<path d="M6166 9397 c-11 -8 -17 -23 -14 -38 2 -19 9 -24 32 -24 40 0 56 27
32 54 -22 25 -26 25 -50 8z"/>
<path d="M4842 9384 c-24 -17 -30 -62 -10 -82 21 -21 66 -14 84 13 20 30 11
58 -22 73 -31 15 -25 15 -52 -4z"/>
<path d="M6062 9388 c-7 -7 -12 -18 -12 -26 0 -10 -6 -12 -17 -7 -41 17 -62
16 -82 -4 -40 -40 -14 -121 38 -121 29 0 71 39 71 66 0 18 5 24 23 24 43 0 60
35 31 64 -19 19 -36 20 -52 4z"/>
<path d="M5031 9364 c-85 -60 -43 -194 61 -194 22 0 48 5 59 10 23 13 49 61
49 90 0 13 5 20 13 17 6 -2 11 -15 9 -29 -3 -28 20 -53 43 -44 24 9 29 35 11
55 -12 13 -14 21 -7 26 16 9 13 41 -5 59 -21 21 -30 20 -56 -6 -14 -14 -23
-18 -26 -10 -12 38 -110 54 -151 26z"/>
<path d="M3227 9364 c-11 -11 -8 -52 3 -59 6 -3 19 -3 31 0 28 9 23 59 -6 63
-12 2 -24 0 -28 -4z"/>
<path d="M3139 9341 c-26 -21 -19 -56 13 -67 29 -9 62 29 48 56 -14 27 -37 31
-61 11z"/>
<path d="M5311 9336 c-7 -8 -10 -24 -6 -35 14 -45 79 -30 73 17 -2 21 -9 28
-29 30 -14 2 -31 -4 -38 -12z"/>
<path d="M4072 9318 c-7 -7 -12 -20 -12 -29 0 -43 72 -53 78 -11 6 42 -37 69
-66 40z"/>
<path d="M8836 9314 c-7 -19 10 -44 29 -44 19 0 36 25 29 44 -3 9 -16 16 -29
16 -13 0 -26 -7 -29 -16z"/>
<path d="M6191 9309 c-48 -15 -80 -38 -111 -81 -24 -32 -29 -36 -40 -23 -27
33 -75 7 -68 -37 2 -19 9 -23 36 -23 31 0 32 -1 32 -40 0 -22 9 -59 19 -82
l19 -42 -21 -3 c-28 -4 -35 -38 -12 -54 21 -15 55 -2 55 21 0 11 9 8 36 -10
44 -30 108 -40 160 -26 32 9 40 8 47 -4 11 -21 29 -8 22 15 -4 13 1 22 14 30
24 12 71 89 71 116 1 18 1 18 12 -1 41 -72 138 -51 138 30 0 65 -71 98 -118
55 -28 -26 -28 -26 -36 12 -21 104 -150 178 -255 147z"/>
<path d="M5506 9303 c-4 -4 -25 -6 -47 -4 -116 8 -157 -144 -52 -194 89 -43
185 71 128 152 -10 14 -12 24 -5 28 5 3 10 10 10 16 0 11 -23 12 -34 2z"/>
<path d="M3264 9288 c-4 -6 0 -16 9 -23 15 -11 15 -14 -3 -30 -18 -16 -20 -16
-26 -2 -9 25 -43 31 -65 11 -10 -9 -19 -22 -19 -29 0 -21 37 -47 58 -41 16 5
18 2 14 -23 -2 -19 4 -48 18 -76 25 -52 77 -85 135 -85 32 0 34 -2 24 -18 -17
-27 -3 -71 26 -84 71 -32 118 69 49 106 -10 6 -21 12 -23 14 -3 1 5 9 17 18
31 21 52 66 52 111 0 101 -104 178 -193 144 -19 -8 -27 -6 -31 5 -6 17 -32 19
-42 2z"/>
<path d="M3955 9276 c-21 -31 -5 -66 28 -66 46 0 66 59 28 80 -29 15 -39 13
-56 -14z"/>
<path d="M4516 9284 c-9 -8 -16 -24 -16 -35 0 -13 -7 -19 -23 -19 -49 0 -76
-70 -41 -104 20 -21 63 -20 86 1 17 15 18 15 18 -4 0 -11 9 -32 21 -47 11 -14
16 -26 10 -26 -6 0 -11 -7 -11 -15 0 -17 25 -20 35 -5 3 6 22 10 41 10 70 0
114 76 83 143 -17 38 -75 62 -113 48 -20 -8 -22 -7 -19 13 5 24 -19 56 -42 56
-7 0 -21 -7 -29 -16z m42 -85 c-2 -6 -8 -10 -13 -10 -5 0 -11 4 -13 10 -2 6 4
11 13 11 9 0 15 -5 13 -11z"/>
<path d="M5730 9281 c-16 -31 4 -63 37 -59 34 4 52 32 37 56 -16 26 -60 28
-74 3z"/>
<path d="M8156 9284 c-31 -30 -8 -69 36 -62 30 4 38 46 12 65 -23 17 -29 16
-48 -3z"/>
<path d="M6452 9258 c-21 -21 -14 -57 14 -70 23 -11 29 -10 45 11 17 21 18 26
6 45 -17 25 -47 32 -65 14z"/>
<path d="M9988 9225 c-53 -29 -57 -106 -8 -150 l22 -20 -24 -6 c-12 -3 -29 -1
-36 4 -9 7 -17 6 -25 -2 -9 -10 -9 -15 3 -24 8 -7 14 -21 12 -33 -4 -28 34
-74 62 -74 38 0 66 28 66 65 0 18 -7 40 -15 49 -13 13 -11 16 20 26 66 22 85
101 36 151 -33 32 -70 37 -113 14z"/>
<path d="M9856 9214 c-24 -23 -20 -53 9 -66 19 -8 28 -8 40 2 21 18 19 57 -4
70 -25 13 -27 13 -45 -6z"/>
<path d="M5198 9181 c-10 -10 -18 -23 -18 -29 0 -18 28 -14 39 6 9 14 10 15
11 1 0 -20 31 -49 52 -49 24 0 51 36 43 59 -10 33 -98 41 -127 12z"/>
<path d="M5753 9184 c-4 -10 0 -22 9 -28 13 -10 11 -15 -12 -37 -26 -26 -27
-26 -39 -7 -14 23 -49 21 -65 -4 -15 -25 5 -53 38 -53 24 1 26 -3 26 -40 0
-100 109 -167 199 -120 27 13 29 13 39 -10 8 -17 20 -25 36 -25 16 0 25 -7 29
-21 8 -29 51 -22 55 9 3 17 -2 25 -17 29 -12 3 -21 13 -21 22 0 22 -19 41 -42
41 -15 0 -17 5 -11 28 29 101 -36 192 -136 192 -20 0 -30 6 -34 20 -6 24 -45
27 -54 4z"/>
<path d="M3566 9167 c-38 -27 2 -95 42 -71 24 16 28 55 6 71 -10 7 -21 13 -24
13 -3 0 -14 -6 -24 -13z"/>
<path d="M4757 9173 c-11 -11 -8 -58 5 -71 33 -33 91 16 68 57 -10 20 -58 30
-73 14z"/>
<path d="M6700 9148 c-107 -55 -104 -183 6 -245 22 -13 32 -23 22 -23 -20 0
-48 -37 -48 -63 0 -10 11 -29 24 -42 14 -14 20 -27 15 -30 -17 -11 -10 -54 12
-65 16 -9 25 -8 40 6 23 21 24 37 4 54 -13 11 -11 15 10 32 33 26 33 70 0 96
l-25 20 34 6 c38 7 92 61 102 101 8 33 -2 85 -22 114 -17 23 -86 60 -114 61
-9 0 -36 -10 -60 -22z"/>
<path d="M5553 9133 c-4 -10 -16 -26 -28 -35 l-20 -17 21 -21 c22 -22 48 -19
58 7 4 9 2 21 -3 27 -6 7 -8 22 -4 34 6 26 -14 30 -24 5z"/>
<path d="M8972 9138 c-32 -32 2 -79 43 -60 39 18 27 72 -15 72 -9 0 -21 -5
-28 -12z"/>
<path d="M3660 9098 c-81 -41 -111 -144 -64 -215 13 -21 13 -23 -5 -23 -43 0
-52 -62 -10 -75 24 -8 49 10 49 34 0 16 3 16 50 2 35 -11 50 -21 50 -34 0 -10
7 -20 16 -24 18 -7 36 15 29 37 -2 9 9 23 27 35 53 34 73 70 73 130 0 117
-112 186 -215 133z"/>
<path d="M4864 9101 c-62 -38 -82 -131 -41 -192 31 -47 81 -71 135 -65 24 3
42 2 42 -4 0 -6 7 -10 16 -10 11 0 15 6 11 20 -3 10 2 25 10 31 23 20 43 65
43 99 0 17 4 29 9 26 5 -3 14 1 21 9 10 12 9 16 -3 21 -9 3 -20 3 -25 0 -5 -3
-15 6 -22 20 -33 60 -133 83 -196 45z"/>
<path d="M5337 9114 c-4 -4 -3 -12 0 -17 4 -6 7 -25 7 -42 1 -25 5 -30 25 -30
13 0 29 8 35 18 9 15 7 22 -11 37 -13 10 -23 23 -23 29 0 12 -23 15 -33 5z"/>
<path d="M9092 9108 c-17 -17 -15 -55 4 -66 15 -8 15 -11 -1 -35 -24 -37 -13
-76 25 -90 19 -7 30 -19 30 -30 0 -11 5 -17 13 -14 6 2 12 11 12 19 0 9 8 25
18 35 9 11 17 34 17 52 0 25 -6 36 -30 49 -23 13 -28 22 -23 40 10 40 -36 69
-65 40z"/>
<path d="M4392 9098 c-6 -6 -12 -18 -12 -25 0 -7 -7 -13 -15 -13 -8 0 -15 -6
-15 -14 0 -22 90 -16 104 7 22 35 -32 75 -62 45z"/>
<path d="M5436 9059 c-30 -23 -33 -45 -10 -77 29 -42 104 -18 104 34 0 25 -10
38 -37 53 -28 14 -26 15 -57 -10z"/>
<path d="M3928 9059 c-44 -25 -3 -93 42 -69 26 14 26 56 1 70 -23 12 -22 12
-43 -1z"/>
<path d="M6975 9033 c-105 -55 -146 -181 -92 -284 48 -91 168 -134 262 -95 25
11 41 13 43 6 2 -5 11 -10 19 -10 11 0 14 6 10 21 -4 14 4 36 21 61 34 53 43
148 17 199 -41 80 -104 119 -192 119 -33 -1 -71 -8 -88 -17z"/>
<path d="M5623 9029 c-13 -5 -23 -16 -23 -24 0 -11 -6 -15 -19 -10 -10 3 -24
-1 -31 -10 -11 -13 -11 -19 3 -32 13 -13 19 -14 31 -3 13 10 19 10 31 0 22
-18 64 -4 71 25 10 40 -23 69 -63 54z"/>
<path d="M10123 9020 c-31 -13 -57 -57 -57 -98 0 -27 8 -41 33 -64 29 -26 39
-30 75 -25 99 14 119 140 29 186 -25 13 -49 13 -80 1z"/>
<path d="M6438 8989 c-34 -19 -16 -79 23 -79 10 0 19 -10 21 -25 5 -24 5 -24
-52 -18 -63 6 -156 -16 -201 -48 l-27 -19 -5 29 c-9 43 -57 49 -77 10 -14 -25
4 -59 31 -59 19 0 18 -3 -10 -43 -100 -146 -74 -323 66 -438 30 -25 30 -27 12
-32 -16 -4 -20 -12 -17 -34 3 -24 8 -28 33 -28 25 0 31 4 33 27 3 24 6 26 30
18 15 -5 40 -11 56 -15 28 -6 28 -6 8 -21 -25 -17 -37 -66 -22 -93 17 -32 56
-54 85 -47 63 16 85 87 39 133 -14 14 -24 26 -22 27 2 1 21 6 44 12 39 10 40
9 36 -12 -3 -15 3 -27 16 -35 19 -12 19 -13 -9 -36 -110 -93 -4 -282 131 -235
29 10 30 10 30 -17 0 -34 17 -51 50 -51 33 0 50 17 50 50 0 32 -17 50 -46 50
l-22 0 19 37 c32 63 24 109 -29 166 -14 15 -21 27 -14 27 6 0 19 11 27 24 29
44 -18 91 -66 66 -17 -9 -20 -19 -17 -46 4 -31 2 -34 -23 -34 -22 0 -26 3 -22
24 4 17 -1 28 -14 36 -18 12 -15 16 37 69 41 41 62 71 76 111 25 73 23 171 -4
233 -25 56 -101 140 -143 157 -29 12 -29 13 -9 27 34 24 20 73 -22 73 -12 0
-18 8 -18 23 0 40 -28 56 -62 36z"/>
<path d="M8079 8984 c-9 -11 -10 -20 -3 -32 15 -23 29 -25 48 -7 12 12 13 21
6 36 -13 23 -33 25 -51 3z"/>
<path d="M8204 8986 c-10 -26 4 -48 28 -44 17 2 23 10 23 28 0 18 -6 26 -23
28 -13 2 -25 -3 -28 -12z"/>
<path d="M4572 8981 c-20 -12 -10 -46 13 -46 14 0 20 7 20 24 0 27 -13 35 -33
22z"/>
<path d="M5232 8981 c-7 -4 -24 -6 -38 -3 -30 6 -34 -27 -4 -35 11 -3 20 -11
20 -18 0 -11 -6 -10 -30 2 -79 39 -162 -49 -120 -128 13 -24 67 -52 90 -46 13
3 16 0 12 -16 -7 -27 24 -50 49 -36 23 12 25 45 3 57 -25 14 1 50 32 44 19 -3
24 0 24 17 0 14 -6 21 -20 21 -13 0 -20 7 -20 18 0 15 6 18 29 14 33 -5 71 26
71 56 0 47 -58 79 -98 53z"/>
<path d="M7257 8983 c-3 -5 -2 -15 3 -22 10 -17 43 -6 38 12 -6 15 -34 22 -41
10z"/>
<path d="M4688 8956 c-9 -22 -8 -29 7 -46 35 -38 79 -16 73 37 -2 23 -8 29
-35 31 -27 3 -35 -1 -45 -22z"/>
<path d="M3980 8952 c-54 -17 -69 -89 -25 -118 16 -10 36 -14 53 -11 22 5 30
1 37 -16 12 -27 53 -29 69 -4 8 12 8 22 0 34 -9 14 -8 21 5 30 12 9 13 16 5
29 -15 25 -29 27 -48 9 -13 -13 -16 -14 -16 -2 0 27 -51 59 -80 49z m95 -82
c3 -5 1 -10 -4 -10 -6 0 -11 5 -11 10 0 6 2 10 4 10 3 0 8 -4 11 -10z"/>
<path d="M9005 8936 c-12 -18 -14 -30 -6 -43 9 -17 3 -21 -57 -36 -95 -24
-158 -74 -201 -159 -27 -54 -34 -78 -34 -130 -1 -80 24 -154 69 -207 35 -40
35 -41 12 -41 -46 0 -65 -51 -32 -84 32 -33 84 -8 84 39 l0 24 56 -26 c48 -22
65 -24 132 -21 42 3 85 8 95 13 17 7 18 6 6 -14 -17 -25 -3 -54 28 -59 46 -7
59 67 13 78 l-25 6 31 17 c43 22 110 101 125 145 l12 35 14 -26 c31 -60 113
-71 153 -20 39 50 14 132 -45 147 -27 7 -95 -17 -95 -33 0 -6 -3 -11 -7 -11
-5 0 -9 24 -11 53 -5 118 -103 240 -214 269 -47 12 -58 21 -38 33 17 11 11 54
-9 65 -29 15 -39 13 -56 -14z"/>
<path d="M5378 8939 c-18 -10 -24 -45 -10 -65 13 -19 39 -23 61 -8 26 19 27
45 3 67 -21 19 -30 20 -54 6z"/>
<path d="M7342 8934 c-18 -12 -22 -24 -20 -51 3 -32 10 -42 46 -60 2 -1 -6
-11 -18 -23 -17 -17 -21 -29 -16 -51 3 -16 2 -28 -2 -28 -24 4 -33 -3 -30 -23
4 -31 36 -36 46 -7 6 15 11 18 16 11 10 -17 47 -15 73 3 20 14 22 14 28 -5 7
-24 47 -27 64 -6 9 11 9 20 2 34 -9 17 -7 21 12 26 52 13 53 99 1 112 -57 15
-96 -33 -69 -85 14 -28 11 -41 -8 -41 -6 0 -8 3 -4 6 11 11 -15 63 -34 69 -23
8 -24 18 -4 35 21 17 19 56 -5 80 -24 24 -48 25 -78 4z"/>
<path d="M8135 8929 c-86 -27 -123 -127 -75 -206 69 -114 250 -61 250 73 0 92
-89 160 -175 133z"/>
<path d="M10291 8919 c-34 -32 -44 -66 -30 -106 11 -36 59 -73 92 -73 35 0 79
31 93 67 18 43 5 93 -31 117 -35 23 -96 21 -124 -5z"/>
<path d="M5662 8918 c-30 -30 -1 -75 43 -64 22 6 26 11 23 39 -2 26 -8 33 -28
35 -14 2 -31 -3 -38 -10z"/>
<path d="M4276 8897 c-38 -27 2 -95 42 -71 24 16 28 55 6 71 -10 7 -21 13 -24
13 -3 0 -14 -6 -24 -13z"/>
<path d="M10002 8898 c-16 -16 -15 -33 2 -47 22 -18 48 -2 44 28 -3 28 -27 38
-46 19z"/>
<path d="M8716 8884 c-20 -19 -20 -38 -2 -54 23 -19 61 -8 64 18 7 44 -32 67
-62 36z"/>
<path d="M8812 8888 c-16 -16 -15 -33 2 -47 22 -18 48 -2 44 28 -3 28 -27 38
-46 19z"/>
<path d="M9900 8881 c-13 -24 -4 -48 21 -56 16 -5 17 -9 6 -26 -21 -33 27 -84
60 -63 44 27 42 66 -5 90 -14 7 -18 14 -12 24 13 21 -7 50 -35 50 -14 0 -29
-8 -35 -19z"/>
<path d="M10520 8873 c-64 -33 -75 -99 -25 -149 80 -80 208 46 130 130 -13 14
-28 26 -34 26 -5 0 -15 2 -23 5 -7 3 -29 -3 -48 -12z"/>
<path d="M8342 8868 c-17 -17 -15 -55 4 -62 27 -11 43 -7 54 14 22 40 -26 80
-58 48z"/>
<path d="M4180 8842 c0 -17 -8 -32 -21 -40 -15 -9 -20 -21 -17 -37 4 -18 0
-25 -18 -29 -33 -9 -42 -46 -15 -67 11 -9 30 -15 41 -12 15 4 20 0 20 -15 0
-42 67 -71 97 -41 8 8 13 6 17 -9 15 -46 83 -27 74 20 -4 22 -1 25 26 26 38 1
86 50 86 88 0 62 -60 114 -116 100 -39 -10 -74 -50 -74 -85 0 -34 19 -81 32
-81 5 0 6 -4 3 -10 -11 -17 -20 -11 -32 20 -12 33 -55 50 -84 32 -13 -9 -18
-8 -23 3 -3 10 1 15 13 15 10 0 26 9 37 21 17 19 18 22 2 50 -10 16 -13 29 -8
29 6 0 10 11 10 25 0 20 -5 25 -25 25 -21 0 -25 -5 -25 -28z"/>
<path d="M5500 8849 c-14 -5 -35 -20 -47 -31 -19 -18 -23 -19 -23 -5 0 27 -36
40 -55 21 -9 -9 -14 -22 -11 -29 2 -7 -4 -15 -15 -18 -26 -7 -24 -43 2 -58
l21 -11 -23 -12 c-29 -14 -36 -48 -14 -66 23 -19 50 -1 50 33 1 39 12 42 19 5
21 -111 146 -166 237 -104 92 63 91 190 -2 259 -31 23 -103 31 -139 16z m-88
-90 c-11 -28 -26 -29 -30 -1 -3 17 2 22 17 22 16 0 19 -4 13 -21z"/>
<path d="M8461 8846 c-16 -20 -3 -46 24 -46 13 0 26 7 29 16 7 19 -10 44 -29
44 -7 0 -18 -6 -24 -14z"/>
<path d="M4474 8835 c-4 -9 -2 -21 4 -27 16 -16 47 -5 47 17 0 26 -42 34 -51
10z"/>
<path d="M3868 8829 c-32 -12 -61 -69 -52 -103 9 -38 50 -70 89 -70 92 0 125
127 44 169 -32 17 -43 17 -81 4z"/>
<path d="M10054 8816 c-10 -26 4 -48 28 -44 17 2 23 10 23 28 0 18 -6 26 -23
28 -13 2 -25 -3 -28 -12z"/>
<path d="M10186 8823 c-12 -12 -6 -33 9 -33 8 0 15 6 15 14 0 17 -14 28 -24
19z"/>
<path d="M10685 8795 c-50 -49 -15 -135 55 -135 41 0 80 39 80 80 0 41 -39 80
-80 80 -19 0 -40 -9 -55 -25z"/>
<path d="M6048 8799 c-24 -14 -23 -56 2 -69 42 -22 82 34 48 68 -14 14 -27 15
-50 1z"/>
<path d="M8562 8785 c-17 -14 -37 -25 -46 -25 -22 0 -20 -21 3 -27 11 -3 21
-17 25 -33 13 -65 110 -76 147 -17 52 85 -52 167 -129 102z"/>
<path d="M5842 8770 c-64 -39 -86 -134 -46 -197 13 -20 13 -23 0 -23 -22 0
-30 -19 -18 -43 6 -12 13 -30 16 -40 8 -26 31 -16 32 14 2 50 3 50 24 39 12
-6 38 -12 60 -13 34 -1 37 -3 28 -20 -5 -10 -7 -30 -4 -43 16 -63 111 -47 104
18 -2 18 -11 35 -23 42 -11 6 -22 12 -24 14 -3 1 4 9 16 17 27 19 53 75 53
117 0 103 -128 173 -218 118z"/>
<path d="M4502 8768 c-16 -16 -15 -33 4 -48 22 -19 54 12 38 37 -14 22 -27 26
-42 11z"/>
<path d="M8376 8758 c-21 -30 -20 -47 4 -73 l21 -22 -45 -6 c-103 -14 -198
-88 -245 -187 -46 -100 -26 -266 40 -326 20 -18 27 -40 9 -29 -18 11 -51 -6
-61 -32 -13 -34 12 -73 46 -73 l24 0 -24 -25 c-32 -31 -32 -66 1 -104 14 -17
23 -35 20 -40 -12 -18 17 -24 30 -6 7 10 24 23 36 29 29 14 51 60 43 86 -10
31 -46 60 -74 60 -19 0 -22 3 -13 12 7 7 12 24 12 39 l0 27 58 -31 c52 -29 65
-32 144 -32 78 0 85 -2 72 -16 -18 -20 -18 -38 3 -61 15 -17 14 -18 -20 -18
-96 0 -209 -77 -257 -175 -35 -71 -36 -199 -1 -265 28 -54 85 -116 126 -137
29 -16 29 -16 7 -24 -29 -11 -30 -54 -2 -69 11 -6 24 -8 29 -5 5 3 11 -5 13
-17 2 -18 9 -23 33 -23 25 0 30 4 30 25 0 16 -8 28 -22 35 -12 5 -24 18 -27
28 -4 17 -1 18 26 13 17 -3 54 -6 82 -6 39 -1 47 -3 34 -11 -20 -11 -23 -41
-8 -68 8 -16 5 -20 -19 -24 -40 -8 -88 -52 -101 -93 -16 -48 -5 -98 32 -139
20 -23 25 -35 16 -35 -8 0 -22 -8 -31 -18 -53 -58 28 -137 83 -82 22 22 25 42
10 71 -10 17 -7 19 27 19 21 0 52 9 70 20 87 52 83 202 -6 241 -30 13 -30 14
-11 32 36 32 21 86 -24 88 -16 0 -14 3 9 11 101 37 181 123 207 224 10 38 17
49 33 49 13 0 20 7 20 20 0 15 -6 19 -22 18 -18 -2 -23 2 -23 22 0 13 -10 50
-21 82 -30 78 -97 144 -177 173 -59 22 -61 23 -47 44 9 11 21 21 28 21 6 0 13
8 15 18 3 13 -1 18 -15 15 -10 -1 -28 4 -40 13 l-23 16 36 16 c19 10 33 13 30
8 -11 -17 6 -41 29 -41 31 0 42 31 17 50 -18 15 -18 17 24 63 77 85 100 227
55 330 -26 60 -99 139 -151 162 -38 17 -39 19 -24 36 14 15 14 21 4 34 -7 8
-20 15 -29 15 -10 0 -21 13 -26 33 -9 28 -15 32 -47 35 -28 2 -40 -2 -52 -20z
m104 -98 c0 -4 -9 -6 -21 -3 -15 4 -17 8 -8 14 14 8 29 3 29 -11z"/>
<path d="M10847 8742 c-38 -42 -8 -112 47 -112 39 0 69 28 69 65 0 57 -79 88
-116 47z"/>
<path d="M5084 8739 c-8 -14 11 -33 25 -25 16 10 13 36 -3 36 -8 0 -18 -5 -22
-11z"/>
<path d="M4569 8721 c-18 -14 -24 -29 -24 -61 0 -32 6 -47 24 -61 28 -23 69
-24 99 -3 21 14 22 14 22 -9 0 -21 -4 -23 -30 -19 -17 2 -37 -1 -45 -8 -19
-16 -19 -64 -1 -79 22 -19 69 -9 81 16 11 22 11 22 43 -10 29 -29 38 -32 92
-32 51 0 63 4 89 29 80 77 58 193 -44 232 -43 16 -47 16 -91 -1 -25 -9 -50
-26 -57 -36 -15 -24 -27 -24 -27 0 0 26 -46 61 -80 61 -15 0 -38 -9 -51 -19z"/>
<path d="M9880 8725 c-15 -19 -4 -52 21 -60 38 -12 65 35 37 63 -16 16 -43 15
-58 -3z"/>
<path d="M7674 8720 c-32 -13 -54 -50 -54 -91 0 -29 7 -43 31 -63 17 -14 42
-26 55 -26 l25 0 -20 -26 c-12 -15 -21 -34 -21 -44 0 -10 9 -29 21 -44 51 -65
154 0 116 74 -11 21 -11 27 2 36 19 15 7 44 -18 44 -17 0 -19 4 -12 23 27 71
-54 148 -125 117z m113 -165 c0 -9 -9 -15 -21 -15 -21 1 -21 1 -2 15 24 18 23
18 23 0z"/>
<path d="M8294 8716 c-10 -26 4 -48 28 -44 17 2 23 10 23 28 0 18 -6 26 -23
28 -13 2 -25 -3 -28 -12z"/>
<path d="M6812 8701 c2 -10 -5 -28 -15 -39 -10 -11 -20 -36 -24 -55 -5 -32 -1
-41 31 -73 33 -33 41 -36 74 -31 111 18 109 187 -3 187 -24 0 -35 4 -35 15 0
8 -7 15 -16 15 -9 0 -14 -7 -12 -19z"/>
<path d="M10997 8702 c-35 -38 -9 -102 40 -102 47 0 71 71 35 103 -24 22 -55
21 -75 -1z"/>
<path d="M11116 8664 c-19 -18 -21 -65 -4 -82 7 -7 26 -12 43 -12 38 0 55 16
55 51 0 34 -24 59 -55 59 -13 0 -31 -7 -39 -16z"/>
<path d="M9756 8654 c-19 -19 -20 -25 -3 -49 20 -26 67 -13 67 18 0 43 -35 60
-64 31z"/>
<path d="M8083 8637 c-4 -8 -18 -19 -30 -26 -50 -26 -32 -101 23 -101 31 0 58
41 48 72 -5 13 -9 32 -9 42 0 24 -20 32 -32 13z"/>
<path d="M4057 8634 c-9 -10 2 -24 19 -24 8 0 14 7 14 15 0 15 -21 21 -33 9z"/>
<path d="M4458 8633 c-34 -8 -35 -74 -1 -87 24 -10 65 21 61 46 -4 25 -36 47
-60 41z"/>
<path d="M9844 8625 c-4 -9 -2 -21 4 -27 16 -16 47 -5 47 17 0 26 -42 34 -51
10z"/>
<path d="M11236 8624 c-23 -23 -20 -51 8 -69 47 -31 95 26 55 66 -23 23 -42
24 -63 3z"/>
<path d="M5046 8599 c-37 -43 -35 -91 5 -131 21 -22 27 -34 20 -41 -31 -31 9
-79 44 -53 13 9 16 20 11 39 -5 21 -3 27 10 27 8 0 29 13 45 29 63 64 23 161
-66 161 -36 0 -48 -5 -69 -31z"/>
<path d="M7500 8616 c-27 -33 18 -72 48 -42 13 13 14 20 6 34 -15 23 -38 26
-54 8z"/>
<path d="M11352 8588 c-27 -27 -6 -68 35 -68 29 0 48 33 33 60 -12 22 -49 27
-68 8z"/>
<path d="M5680 8560 c-15 -28 4 -60 35 -60 14 0 29 8 35 20 15 28 -4 60 -35
60 -14 0 -29 -8 -35 -20z"/>
<path d="M5237 8563 c-14 -14 -6 -53 13 -63 18 -10 19 -13 5 -26 -25 -25 -19
-79 11 -103 30 -24 43 -26 78 -10 60 28 53 115 -12 134 -25 7 -31 13 -26 28 3
10 0 24 -6 32 -13 15 -51 20 -63 8z"/>
<path d="M11447 8563 c-22 -21 0 -63 33 -63 18 0 32 40 19 56 -12 15 -41 19
-52 7z"/>
<path d="M3555 8541 c-3 -6 -4 -15 -1 -20 3 -5 -3 -11 -14 -14 -30 -8 -44 -54
-26 -83 21 -31 52 -39 81 -20 31 20 35 78 8 98 -10 7 -18 19 -18 27 0 18 -21
26 -30 12z"/>
<path d="M7610 8535 c-14 -17 -5 -51 16 -59 22 -8 54 11 54 32 0 38 -46 56
-70 27z"/>
<path d="M11533 8543 c-7 -3 -13 -15 -13 -28 0 -13 6 -25 13 -28 17 -6 47 11
47 28 0 17 -30 34 -47 28z"/>
<path d="M5445 8495 c-14 -13 -25 -31 -25 -40 0 -22 45 -65 68 -65 23 0 62 40
62 64 0 21 -44 66 -65 66 -9 0 -27 -11 -40 -25z"/>
<path d="M9530 8499 c-10 -18 -9 -25 9 -43 27 -27 56 -12 56 30 0 24 -5 30
-27 32 -19 2 -30 -3 -38 -19z"/>
<path d="M11594 8505 c-4 -9 -2 -21 4 -27 15 -15 44 -1 40 19 -4 23 -36 29
-44 8z"/>
<path d="M3712 8498 c-32 -32 7 -80 49 -58 30 17 23 64 -11 68 -14 2 -31 -3
-38 -10z"/>
<path d="M11654 8489 c-10 -17 13 -36 27 -22 12 12 4 33 -11 33 -5 0 -12 -5
-16 -11z"/>
<path d="M4941 8476 c-16 -19 -11 -46 12 -60 25 -16 52 4 52 40 0 24 -5 30
-26 32 -14 2 -31 -4 -38 -12z"/>
<path d="M8024 8476 c-10 -26 4 -48 28 -44 17 2 23 10 23 28 0 18 -6 26 -23
28 -13 2 -25 -3 -28 -12z"/>
<path d="M11702 8468 c6 -18 28 -21 28 -4 0 9 -7 16 -16 16 -9 0 -14 -5 -12
-12z"/>
<path d="M11742 8461 c4 -13 18 -16 19 -4 0 4 -5 9 -11 12 -7 2 -11 -2 -8 -8z"/>
<path d="M11780 8450 c0 -5 5 -10 11 -10 5 0 7 5 4 10 -3 6 -8 10 -11 10 -2 0
-4 -4 -4 -10z"/>
<path d="M3761 8424 c-19 -15 -31 -35 -31 -50 0 -21 -2 -23 -25 -12 -32 14
-57 -5 -53 -41 4 -31 45 -42 63 -18 10 14 15 12 39 -14 70 -74 188 -2 156 96
-21 64 -96 84 -149 39z"/>
<path d="M7160 8424 c-58 -50 -74 -111 -46 -179 12 -29 12 -34 0 -39 -16 -6
-19 -42 -5 -50 14 -9 41 4 41 20 0 12 5 12 30 -1 41 -21 108 -19 148 5 65 40
89 143 47 207 -44 66 -156 86 -215 37z"/>
<path d="M11810 8440 c0 -5 5 -10 10 -10 6 0 10 5 10 10 0 6 -4 10 -10 10 -5
0 -10 -4 -10 -10z"/>
<path d="M4080 8420 c-24 -24 -25 -38 -4 -68 29 -42 104 -17 104 35 0 20 -38
53 -60 53 -11 0 -29 -9 -40 -20z"/>
<path d="M5621 8414 c-25 -21 -31 -33 -31 -65 0 -97 99 -138 172 -72 17 15 18
14 18 -5 0 -37 78 -70 104 -44 4 4 19 7 33 7 32 0 43 24 14 32 -11 3 -18 9
-15 14 6 11 -24 69 -36 69 -6 0 -8 11 -4 26 6 23 4 25 -17 22 -15 -2 -24 -10
-24 -20 0 -9 -9 -24 -20 -32 -22 -17 -36 -20 -34 -8 5 27 -5 53 -27 76 -36 35
-91 36 -133 0z"/>
<path d="M7415 8414 c-19 -20 -16 -43 8 -58 20 -13 50 2 55 26 3 16 -23 48
-38 48 -5 0 -16 -7 -25 -16z"/>
<path d="M6700 8390 c-41 -41 -10 -110 48 -110 37 0 62 28 62 68 0 56 -70 82
-110 42z"/>
<path d="M7811 8374 c-11 -14 -25 -23 -31 -19 -6 4 -17 2 -24 -4 -10 -9 -15
-8 -20 4 -7 19 -50 19 -66 0 -20 -24 3 -65 35 -65 14 0 28 7 31 15 5 12 10 13
20 4 8 -7 19 -7 30 -1 12 7 22 4 35 -9 37 -37 99 -11 99 41 0 60 -71 83 -109
34z"/>
<path d="M4256 8374 c-9 -8 -16 -19 -16 -24 0 -4 -9 -10 -21 -13 -25 -7 -16
-30 9 -25 29 6 40 -14 20 -34 -18 -18 -19 -18 -49 4 -31 23 -94 30 -135 15
-19 -6 -21 -4 -21 19 0 27 -25 54 -50 54 -18 0 -53 -37 -53 -55 0 -22 39 -57
56 -51 18 7 17 -4 -1 -28 -9 -12 -15 -42 -15 -73 0 -44 5 -58 30 -87 97 -110
264 -37 248 109 -5 38 -3 45 12 45 22 0 34 28 20 45 -7 8 -3 15 15 23 45 21
27 92 -24 92 -5 0 -17 -7 -25 -16z"/>
<path d="M5410 8375 c-15 -18 -6 -61 16 -69 24 -9 54 12 54 37 0 43 -44 63
-70 32z"/>
<path d="M7505 8370 c-4 -12 -1 -27 5 -35 11 -13 8 -14 -18 -9 -26 5 -36 1
-62 -24 -37 -38 -39 -74 -5 -108 29 -29 31 -34 10 -34 -31 0 -65 -47 -65 -87
0 -47 19 -76 59 -93 62 -25 131 20 131 85 0 46 -13 71 -48 89 -16 9 -21 15
-11 16 25 0 59 44 59 76 0 16 -7 40 -16 52 -13 19 -13 22 -1 22 22 0 39 27 32
50 -4 14 -15 20 -35 20 -20 0 -31 -6 -35 -20z"/>
<path d="M6052 8354 c-12 -8 -22 -21 -22 -29 0 -8 -11 -12 -31 -11 -38 1 -60
-25 -43 -51 16 -25 40 -27 61 -6 17 17 19 17 36 1 24 -25 54 -22 82 7 30 29
31 45 4 79 -23 29 -54 33 -87 10z"/>
<path d="M4395 8341 c-54 -24 -79 -71 -73 -136 3 -41 0 -53 -17 -67 -19 -16
-19 -18 -2 -34 15 -17 18 -17 33 -3 14 15 19 14 52 -2 20 -11 47 -19 60 -19
21 0 22 -1 8 -16 -9 -8 -16 -22 -16 -29 0 -15 27 -45 41 -45 5 0 18 9 29 20
16 16 18 25 10 40 -5 10 -15 22 -21 25 -6 4 3 14 21 23 17 10 39 31 50 47 13
19 20 24 20 14 0 -41 72 -50 82 -11 11 41 -39 71 -69 41 -7 -7 -12 5 -15 41
-6 57 -33 94 -85 116 -42 18 -60 17 -108 -5z"/>
<path d="M9256 8335 c-9 -9 -16 -20 -16 -25 0 -15 32 -41 48 -38 24 5 39 35
26 56 -15 23 -38 26 -58 7z"/>
<path d="M4662 8304 c-43 -30 -20 -104 33 -104 l24 0 -21 -36 c-16 -27 -19
-45 -14 -80 4 -35 3 -44 -9 -44 -8 0 -15 8 -15 18 0 44 -72 69 -104 36 -45
-44 5 -119 65 -97 17 7 31 7 35 2 9 -15 41 -10 48 7 5 13 9 12 28 -5 75 -70
208 -5 208 101 0 81 -59 133 -142 127 -46 -4 -46 -4 -41 22 4 19 -1 33 -16 48
-25 25 -49 27 -79 5z"/>
<path d="M7588 8289 c-33 -19 -15 -69 24 -69 15 0 38 27 38 44 0 7 -31 36 -38
36 -4 0 -15 -5 -24 -11z"/>
<path d="M4924 8276 c-15 -40 21 -80 54 -60 37 24 21 74 -25 74 -13 0 -26 -6
-29 -14z"/>
<path d="M7768 8279 c-33 -19 -15 -69 24 -69 9 0 22 9 28 21 9 16 8 25 -6 40
-20 22 -22 22 -46 8z"/>
<path d="M5085 8270 c-72 -30 -106 -133 -66 -197 29 -46 66 -67 120 -67 56 0
100 27 123 75 9 18 18 27 22 20 10 -16 46 -13 52 4 8 21 -16 47 -37 42 -13 -4
-20 3 -24 24 -18 80 -114 131 -190 99z"/>
<path d="M7030 8261 c-12 -23 -5 -47 16 -55 22 -8 54 11 54 32 0 41 -51 57
-70 23z"/>
<path d="M7850 8255 c-26 -31 13 -82 44 -56 19 16 21 42 4 59 -16 16 -33 15
-48 -3z"/>
<path d="M3886 8247 c-38 -27 2 -95 42 -71 24 16 28 55 6 71 -10 7 -21 13 -24
13 -3 0 -14 -6 -24 -13z"/>
<path d="M3747 8243 c-9 -2 -24 -18 -33 -35 -31 -59 26 -123 87 -98 58 25 61
108 3 130 -26 10 -28 11 -57 3z"/>
<path d="M5333 8234 c-4 -10 -2 -19 5 -22 7 -2 12 -14 12 -28 0 -27 42 -60 61
-48 7 4 5 -3 -4 -17 -42 -58 -2 -143 67 -143 71 0 112 78 72 138 -9 15 -21 26
-26 26 -5 0 -2 13 8 29 14 25 14 31 2 45 -7 10 -24 16 -39 14 -23 -3 -26 -7
-25 -40 1 -29 -3 -38 -19 -42 -15 -4 -17 -2 -8 7 30 30 -12 97 -53 81 -9 -3
-23 -1 -31 6 -12 10 -16 9 -22 -6z"/>
<path d="M7675 8233 c-29 -7 -46 -24 -62 -60 -11 -28 -11 -38 1 -67 17 -40 42
-56 89 -56 67 0 110 79 76 142 -9 16 -70 51 -81 47 -2 -1 -12 -4 -23 -6z"/>
<path d="M8805 8211 c-103 -26 -174 -135 -156 -238 18 -97 99 -166 197 -167
30 -1 53 -5 53 -11 -3 -26 3 -35 21 -35 24 0 38 26 22 42 -8 8 0 19 27 39 155
112 96 346 -94 372 -22 3 -53 2 -70 -2z"/>
<path d="M5695 8188 c-11 -6 -25 -18 -31 -26 -9 -12 -14 -12 -31 -1 -18 10
-24 10 -37 0 -9 -8 -16 -17 -16 -22 0 -17 31 -37 50 -32 16 4 20 0 20 -20 0
-33 52 -77 90 -77 16 0 42 11 59 26 26 21 31 33 31 67 0 23 -6 49 -13 58 -28
37 -83 49 -122 27z"/>
<path d="M9034 8186 c-10 -26 4 -48 28 -44 17 2 23 10 23 28 0 18 -6 26 -23
28 -13 2 -25 -3 -28 -12z"/>
<path d="M9122 8168 c-27 -27 -3 -88 34 -88 18 0 54 36 54 53 0 36 -63 60 -88
35z"/>
<path d="M5929 8141 c-37 -37 -37 -65 1 -103 24 -24 37 -29 58 -25 24 5 28 3
27 -20 0 -14 8 -31 18 -37 25 -16 52 4 52 40 0 22 -5 30 -22 32 -27 4 -29 14
-8 32 11 9 15 9 15 1 0 -8 12 -11 33 -9 25 2 33 8 35 26 7 44 -32 67 -62 36
-9 -9 -16 -11 -16 -4 0 21 -49 60 -75 60 -16 0 -38 -12 -56 -29z"/>
<path d="M3890 8135 c-26 -32 13 -81 48 -59 34 22 22 74 -18 74 -10 0 -23 -7
-30 -15z"/>
<path d="M6194 8127 c-51 -45 -20 -137 46 -137 72 0 106 85 55 135 -30 31 -66
32 -101 2z"/>
<path d="M7025 8120 c-4 -12 -1 -27 5 -35 27 -33 78 -5 65 35 -4 14 -15 20
-35 20 -20 0 -31 -6 -35 -20z"/>
<path d="M7123 8128 c-21 -28 -23 -51 -6 -77 9 -14 16 -34 15 -43 -2 -11 3
-18 12 -18 9 0 16 6 16 14 0 8 11 17 25 20 14 4 28 13 31 21 5 11 10 12 25 2
17 -10 22 -9 33 5 8 11 17 13 28 7 9 -5 23 -6 32 -3 31 12 31 66 0 78 -20 8
-54 -11 -54 -29 0 -25 -46 -18 -64 10 -12 18 -25 25 -50 25 -18 0 -38 -6 -43
-12z"/>
<path d="M4316 8075 c-20 -21 -20 -39 0 -59 20 -21 30 -20 55 5 18 18 19 23 6
42 -18 28 -40 32 -61 12z"/>
<path d="M5281 8056 c-7 -8 -11 -25 -9 -38 2 -18 9 -23 32 -23 36 0 56 27 40
53 -14 22 -48 27 -63 8z"/>
<path d="M4962 8048 c-31 -31 3 -87 42 -72 26 10 32 55 11 71 -23 16 -37 17
-53 1z"/>
<path d="M9090 8030 c-21 -21 -27 -74 -11 -100 7 -10 4 -18 -10 -28 -13 -9
-19 -23 -17 -40 3 -23 8 -27 35 -27 26 0 32 -3 28 -16 -8 -25 14 -65 42 -78
34 -16 47 -14 77 10 67 53 -11 165 -84 119 -9 -6 -17 -5 -22 3 -11 18 -10 28
5 26 50 -6 87 25 87 74 0 66 -84 103 -130 57z"/>
<path d="M5600 8022 c-16 -13 -21 -24 -16 -40 13 -38 69 -40 81 -1 13 40 -32
68 -65 41z"/>
<path d="M5830 8025 c-26 -32 13 -81 48 -59 34 22 22 74 -18 74 -10 0 -23 -7
-30 -15z"/>
<path d="M7263 8023 c-19 -7 -16 -60 3 -67 27 -11 43 -7 54 14 21 38 -14 71
-57 53z"/>
<path d="M8012 8014 c-12 -8 -22 -21 -22 -29 0 -8 10 -21 22 -29 28 -20 58 -4
58 29 0 33 -30 49 -58 29z"/>
<path d="M6296 7994 c-8 -8 -13 -21 -9 -30 8 -22 47 -13 51 12 4 27 -22 38
-42 18z"/>
<path d="M5374 7985 c-9 -22 5 -38 22 -24 18 15 18 25 -1 33 -9 3 -18 -1 -21
-9z"/>
<path d="M6407 7989 c-39 -23 -41 -86 -3 -111 21 -14 63 -8 81 12 49 54 -15
136 -78 99z"/>
<path d="M8353 7993 c-19 -7 -16 -50 4 -57 24 -10 51 20 37 41 -12 19 -23 24
-41 16z"/>
<path d="M6265 7920 c-24 -27 -22 -70 5 -92 29 -23 41 -23 74 3 31 25 34 61 6
89 -25 25 -62 26 -85 0z"/>
<path d="M6068 7915 c-67 -37 -65 -125 3 -161 62 -32 129 13 129 86 0 65 -74
107 -132 75z"/>
<path d="M5787 7886 c-30 -28 -42 -65 -33 -100 5 -19 1 -26 -13 -31 -25 -7
-35 -34 -20 -51 17 -21 50 -17 56 7 4 14 10 18 22 13 9 -4 32 -9 52 -11 28 -4
41 1 66 24 29 28 31 28 39 8 14 -31 51 -32 65 -1 9 20 9 29 -1 41 -15 18 -41
20 -58 3 -9 -9 -12 -5 -12 21 0 22 7 39 23 51 21 18 21 20 5 36 -16 16 -19 16
-35 2 -16 -14 -20 -15 -37 -2 -31 22 -89 18 -119 -10z"/>
<path d="M7817 7892 c-10 -10 -17 -26 -17 -34 0 -9 -9 -18 -21 -21 -12 -3 -18
-10 -14 -16 3 -6 -1 -11 -9 -11 -44 0 -74 -82 -41 -110 11 -9 12 -16 4 -26 -8
-10 -17 -6 -41 21 -35 41 -84 53 -129 34 -34 -13 -69 -61 -69 -94 -1 -18 -1
-19 -11 -2 -16 28 -67 49 -100 42 -65 -14 -92 -103 -45 -150 13 -13 35 -27 49
-30 35 -9 86 20 101 57 10 23 14 26 19 14 4 -9 22 -26 42 -37 40 -24 44 -34
15 -42 -11 -3 -20 -12 -20 -21 0 -24 31 -32 45 -13 13 18 30 24 20 7 -7 -11
12 -51 29 -62 21 -14 47 -8 70 17 l23 25 6 -27 c10 -45 43 -90 88 -120 37 -24
52 -28 114 -28 l72 1 -24 -26 c-32 -34 -57 -121 -48 -168 23 -123 137 -207
255 -187 58 10 129 62 157 114 45 87 24 203 -50 268 -48 42 -97 57 -168 50
l-59 -5 24 31 c46 61 55 150 21 217 -18 35 -75 87 -108 99 -35 14 -117 14
-151 1 -61 -23 -114 -90 -130 -162 -6 -28 -6 -28 -26 -8 -22 22 -42 25 -71 10
-13 -7 -19 -7 -19 0 0 5 7 10 15 10 23 0 83 59 90 88 4 22 11 28 33 27 22 0
27 4 27 25 0 16 9 31 28 42 21 14 27 25 27 52 0 18 -7 39 -15 46 -8 7 -12 16
-10 21 3 4 15 -1 25 -11 11 -11 28 -20 37 -20 15 0 15 -1 -1 -13 -36 -26 4
-84 42 -61 25 16 27 51 4 65 -20 12 -20 13 0 29 42 34 13 110 -42 110 -15 0
-34 -8 -43 -18z"/>
<path d="M5522 7884 c-56 -23 -56 -101 0 -130 23 -12 37 -13 53 -6 19 9 23 6
32 -19 14 -35 56 -41 73 -9 15 27 -4 60 -34 60 -19 0 -22 4 -18 29 9 61 -46
101 -106 75z"/>
<path d="M6548 7888 c-24 -20 -28 -43 -12 -73 17 -34 17 -35 1 -35 -21 0 -49
-36 -51 -64 -1 -21 -5 -24 -24 -19 -28 7 -52 -12 -52 -42 0 -12 7 -28 15 -35
20 -16 62 -5 70 19 5 17 8 18 34 5 74 -37 141 60 83 118 l-21 22 22 11 c28 13
35 66 12 89 -20 19 -55 21 -77 4z"/>
<path d="M7991 7874 c-17 -14 -31 -34 -31 -44 0 -10 -9 -20 -20 -23 -11 -3
-20 -11 -20 -17 0 -7 8 -10 19 -7 13 3 22 -3 30 -19 14 -32 65 -57 100 -49 81
18 101 134 31 170 -42 22 -74 18 -109 -11z"/>
<path d="M5660 7871 c-8 -17 -7 -24 10 -41 28 -28 63 -11 58 28 -4 35 -51 44
-68 13z"/>
<path d="M5404 7859 c-23 -25 -9 -53 29 -57 21 -3 28 2 33 24 5 20 2 31 -11
41 -25 17 -29 17 -51 -8z"/>
<path d="M6838 7869 c-31 -18 -17 -79 18 -79 17 0 44 28 44 45 0 14 -27 45
-38 45 -4 0 -15 -5 -24 -11z"/>
<path d="M4850 7857 c-28 -14 -40 -68 -19 -93 18 -22 75 -18 93 8 9 12 16 17
16 11 0 -7 9 -17 20 -23 30 -16 62 4 58 37 -4 35 -32 52 -58 36 -16 -11 -23
-9 -44 12 -29 29 -32 29 -66 12z"/>
<path d="M5096 7851 c-25 -28 -5 -63 32 -59 34 4 44 45 16 65 -23 17 -28 17
-48 -6z"/>
<path d="M5263 7851 c-3 -11 -9 -19 -13 -16 -13 8 -40 -6 -40 -20 0 -7 6 -18
14 -24 11 -9 17 -8 28 3 8 7 23 16 34 18 13 2 19 12 19 28 0 32 -34 41 -42 11z"/>
<path d="M3963 7853 c-13 -2 -23 -11 -23 -19 0 -20 64 -12 68 10 3 16 -3 17
-45 9z"/>
<path d="M6402 7848 c-23 -23 -7 -68 24 -68 14 0 44 27 44 40 0 13 -30 40 -44
40 -6 0 -17 -5 -24 -12z"/>
<path d="M4284 7835 c-10 -25 4 -45 32 -45 20 0 25 -4 20 -16 -3 -9 -6 -21 -6
-28 0 -8 -10 -11 -30 -8 -21 3 -30 0 -30 -9 -1 -8 -10 3 -21 23 -10 21 -28 42
-38 48 -35 18 -80 12 -107 -15 -30 -30 -30 -30 -37 -5 -7 27 -50 42 -82 30
-46 -17 -52 -85 -11 -112 19 -13 64 -9 80 8 14 13 16 13 16 0 0 -22 47 -73 74
-80 14 -3 36 -2 50 4 22 8 25 6 28 -17 4 -33 27 -48 61 -39 29 7 43 37 28 63
-7 14 -4 23 14 39 l22 20 26 -22 c24 -21 24 -22 6 -38 -21 -18 -25 -66 -7 -84
20 -20 76 -15 88 7 14 28 12 57 -5 71 -19 15 -19 30 -2 30 18 0 53 39 62 68
10 33 -13 80 -46 97 -35 19 -53 19 -88 0 -27 -13 -29 -13 -34 5 -6 24 -55 28
-63 5z m-19 -166 c-10 -15 -25 -10 -19 6 4 8 10 12 15 9 5 -3 7 -10 4 -15z"/>
<path d="M6210 7805 c-20 -24 -3 -55 30 -55 34 0 44 12 36 46 -7 28 -46 33
-66 9z"/>
<path d="M4586 7789 c-34 -27 -32 -64 5 -91 20 -15 30 -17 52 -9 25 10 27 9
27 -15 0 -15 12 -38 29 -55 62 -62 161 -24 161 61 0 79 -76 122 -145 81 -33
-19 -35 -19 -35 -2 0 41 -57 59 -94 30z"/>
<path d="M5332 7788 c-7 -7 -12 -23 -12 -36 0 -13 -4 -21 -10 -17 -6 4 -22 -1
-36 -10 -54 -35 -7 -120 52 -93 27 13 38 39 29 68 -4 14 -2 20 9 20 13 0 36
28 36 44 0 10 -32 36 -44 36 -6 0 -17 -5 -24 -12z"/>
<path d="M8854 7776 c-4 -9 -4 -19 -1 -23 3 -3 0 -12 -8 -20 -30 -30 -3 -90
35 -80 17 4 17 2 3 -31 -40 -95 39 -199 146 -190 57 4 77 -13 73 -61 -2 -22 3
-43 16 -61 20 -27 20 -27 1 -44 -13 -11 -18 -24 -14 -36 6 -18 4 -19 -20 -10
-38 15 -114 12 -173 -5 -174 -52 -265 -253 -191 -424 17 -38 17 -42 2 -37 -8
4 -27 -1 -40 -9 -18 -13 -23 -23 -21 -47 4 -40 28 -55 65 -42 19 6 29 18 33
38 l5 28 25 -27 c14 -15 51 -40 82 -55 56 -27 57 -28 29 -33 -40 -8 -89 -61
-97 -104 -17 -89 46 -163 137 -163 125 0 179 154 83 238 l-37 32 39 0 c134 0
269 126 289 271 15 105 -36 221 -127 289 -37 27 -44 36 -33 43 8 4 15 18 15
30 0 19 6 22 40 22 32 1 48 8 72 32 93 93 -34 234 -141 156 -23 -18 -30 -19
-34 -8 -3 7 1 19 9 26 44 36 55 107 28 165 -20 41 -45 61 -96 75 -22 5 -38 16
-38 24 0 8 -7 15 -15 15 -8 0 -15 -8 -15 -17 0 -10 -14 -26 -30 -35 -29 -16
-30 -16 -30 2 0 10 -9 26 -21 34 -12 8 -18 19 -15 24 3 5 -1 15 -9 22 -12 10
-16 9 -21 -4z"/>
<path d="M6832 7772 c-12 -2 -35 -19 -50 -38 -17 -21 -33 -32 -43 -29 -19 6
-44 -19 -34 -36 4 -6 18 -9 31 -6 16 3 24 0 24 -10 0 -8 13 -28 29 -44 37 -36
86 -39 126 -7 20 15 30 18 33 10 4 -14 38 -16 47 -2 3 5 14 1 25 -10 11 -11
31 -20 45 -20 25 0 65 31 65 50 0 6 13 1 29 -11 23 -17 32 -19 50 -10 59 32
41 111 -25 111 -8 0 -24 -10 -35 -21 -12 -12 -24 -17 -28 -12 -16 25 -52 35
-82 23 -16 -7 -29 -17 -29 -22 0 -6 -5 -6 -14 1 -7 6 -21 9 -30 5 -10 -4 -16
-1 -16 9 0 40 -65 78 -118 69z m138 -116 c0 -3 -4 -8 -10 -11 -5 -3 -10 -1
-10 4 0 6 5 11 10 11 6 0 10 -2 10 -4z m30 -6 c0 -5 -2 -10 -4 -10 -3 0 -8 5
-11 10 -3 6 -1 10 4 10 6 0 11 -4 11 -10z"/>
<path d="M6950 7759 c0 -25 33 -22 38 4 2 12 -3 17 -17 17 -15 0 -21 -6 -21
-21z"/>
<path d="M5047 7752 c-10 -10 -17 -24 -17 -30 0 -6 -12 -12 -27 -14 -20 -2
-28 -9 -28 -23 0 -16 7 -20 31 -20 17 0 38 -6 48 -14 10 -9 29 -12 51 -8 26 4
35 2 35 -8 0 -23 21 -28 38 -11 16 16 16 18 -3 34 -13 11 -19 26 -17 44 7 55
-74 91 -111 50z"/>
<path d="M7416 7733 c-12 -12 -6 -33 9 -33 8 0 15 6 15 14 0 17 -14 28 -24 19z"/>
<path d="M5440 7715 c-10 -12 -16 -12 -26 -4 -19 16 -44 4 -44 -21 0 -25 25
-37 44 -21 10 9 15 8 20 -4 4 -11 16 -15 38 -13 26 2 34 8 36 26 7 44 -41 70
-68 37z"/>
<path d="M6202 7714 c-31 -22 -30 -69 3 -90 23 -15 27 -15 49 0 39 25 43 56
12 83 -32 27 -35 28 -64 7z"/>
<path d="M6326 7717 c-36 -26 4 -84 42 -61 23 15 26 38 7 58 -20 19 -26 20
-49 3z"/>
<path d="M8070 7695 c-15 -19 -4 -52 21 -60 38 -12 65 35 37 63 -16 16 -43 15
-58 -3z"/>
<path d="M4882 7678 c-17 -17 -15 -53 3 -68 20 -17 62 -5 70 20 14 44 -41 80
-73 48z"/>
<path d="M9190 7670 c-41 -41 -13 -110 44 -110 41 0 66 26 66 68 0 56 -70 82
-110 42z"/>
<path d="M6072 7668 c-18 -18 -15 -35 10 -52 30 -21 60 -4 56 32 -2 20 -9 28
-28 30 -14 2 -31 -3 -38 -10z"/>
<path d="M4497 7653 c-4 -3 -7 -15 -7 -25 0 -13 7 -18 25 -18 15 0 25 -6 25
-15 0 -22 36 -38 59 -26 25 14 30 31 20 60 -8 20 -14 23 -44 18 -19 -3 -37 -1
-40 4 -7 10 -29 12 -38 2z"/>
<path d="M5528 7580 c-24 -25 -29 -36 -23 -58 8 -32 33 -62 52 -62 16 0 17
-12 3 -26 -17 -17 0 -44 26 -44 28 0 42 25 28 48 -7 11 -2 22 18 43 35 34 36
72 3 104 -33 34 -70 32 -107 -5z"/>
<path d="M5705 7588 c-15 -14 -28 -38 -31 -59 -5 -28 -1 -41 21 -67 49 -58
137 -38 160 37 5 17 10 20 18 12 15 -15 50 -14 65 1 17 17 15 54 -4 72 -21 21
-40 20 -64 -4 -19 -19 -20 -19 -44 5 -33 33 -85 34 -121 3z"/>
<path d="M5977 7592 c-36 -40 -9 -102 45 -102 49 0 78 69 42 104 -21 22 -67
20 -87 -2z"/>
<path d="M6702 7594 c-58 -40 5 -128 64 -89 29 19 32 65 6 88 -23 21 -41 21
-70 1z"/>
<path d="M4637 7586 c-8 -19 15 -37 32 -26 17 10 7 40 -13 40 -7 0 -16 -6 -19
-14z"/>
<path d="M6143 7584 c-9 -24 10 -49 38 -49 20 0 24 5 24 30 0 25 -4 30 -28 33
-18 2 -29 -2 -34 -14z"/>
<path d="M6432 7578 c-7 -7 -12 -20 -12 -30 0 -19 -15 -24 -25 -8 -9 15 -78
12 -101 -5 -75 -52 -36 -175 56 -175 61 0 110 60 96 116 -5 20 -4 25 6 22 21
-8 55 9 61 31 11 44 -49 81 -81 49z"/>
<path d="M5385 7560 c-27 -30 -7 -70 35 -70 42 0 62 40 35 70 -10 11 -26 20
-35 20 -9 0 -25 -9 -35 -20z"/>
<path d="M6559 7562 c-45 -37 -16 -122 41 -122 31 0 70 39 70 70 0 19 -9 36
-26 49 -33 26 -55 26 -85 3z"/>
<path d="M6950 7554 c0 -8 -4 -12 -10 -9 -17 10 -50 -15 -50 -38 0 -27 17 -47
41 -47 23 0 35 19 43 68 5 34 3 42 -9 42 -8 0 -15 -7 -15 -16z"/>
<path d="M7168 7531 c-12 -17 -16 -17 -33 -5 -26 19 -52 17 -75 -6 -39 -39
-14 -100 42 -100 25 0 58 27 58 47 0 6 17 10 38 9 31 -1 37 2 40 22 7 47 -44
70 -70 33z"/>
<path d="M5256 7514 c-19 -18 -20 -36 -4 -52 8 -8 6 -16 -12 -30 -24 -19 -24
-19 -40 1 -29 35 -79 2 -65 -44 7 -22 43 -35 57 -21 8 8 17 1 32 -21 28 -41
69 -47 102 -16 31 29 31 63 0 94 -14 14 -20 27 -15 30 13 9 11 49 -3 63 -16
16 -33 15 -52 -4z"/>
<path d="M4982 7500 c-26 -11 -43 -49 -35 -79 4 -14 1 -21 -9 -21 -11 0 -15
11 -14 38 1 31 -2 37 -22 40 -47 7 -68 -35 -33 -65 17 -14 17 -18 5 -30 -17
-18 -18 -64 -1 -86 6 -9 24 -19 39 -22 38 -10 83 34 75 74 -5 25 -3 27 29 28
19 1 32 -2 29 -6 -2 -4 3 -17 11 -29 27 -39 74 -22 74 26 0 17 -8 27 -29 35
-24 9 -29 17 -29 40 2 46 -44 75 -90 57z"/>
<path d="M8787 7504 c-13 -13 -7 -44 8 -50 10 -4 13 -13 10 -25 -4 -12 1 -22
14 -31 15 -9 17 -16 9 -31 -14 -27 -2 -80 25 -104 31 -29 62 -36 101 -23 103
34 80 190 -28 190 -20 0 -46 -4 -56 -10 -14 -8 -19 -5 -25 13 -4 12 -7 33 -8
47 -2 25 -34 40 -50 24z"/>
<path d="M6798 7464 c-86 -46 -50 -184 47 -184 99 0 133 140 45 185 -36 19
-57 18 -92 -1z"/>
<path d="M5390 7452 c-43 -35 -15 -112 41 -112 52 0 79 85 37 114 -29 21 -51
20 -78 -2z"/>
<path d="M7128 7413 c-52 -33 -59 -93 -16 -139 17 -19 17 -22 3 -28 -25 -9
-15 -50 14 -54 27 -4 43 15 35 41 -4 13 0 17 21 17 14 0 37 11 50 25 71 70
-23 192 -107 138z"/>
<path d="M7451 7416 c-13 -16 -6 -56 10 -56 21 0 6 -16 -31 -33 -123 -57 -198
-209 -169 -345 6 -31 18 -69 25 -84 l14 -27 -32 14 c-18 7 -33 19 -33 27 0 7
-9 14 -19 16 -14 3 -17 0 -13 -12 4 -11 0 -19 -11 -23 -28 -10 -72 -55 -72
-74 0 -25 -15 -32 -30 -14 -20 24 -66 18 -89 -12 -25 -31 -20 -58 15 -90 13
-12 20 -25 14 -28 -17 -10 -11 -37 9 -42 18 -5 17 -8 -11 -48 -21 -30 -32 -59
-36 -94 -4 -46 -6 -49 -23 -40 -30 15 -61 -6 -57 -39 3 -31 39 -42 64 -21 17
14 17 14 34 -29 26 -67 116 -122 199 -122 27 0 32 -3 23 -12 -7 -7 -12 -21
-12 -33 0 -28 19 -45 50 -45 51 0 66 46 28 87 -16 17 -18 23 -7 23 25 0 86 58
108 103 26 54 27 128 2 182 -24 53 -91 112 -136 121 l-35 6 32 17 c32 15 33
15 38 -4 4 -13 16 -21 33 -23 19 -2 27 -9 27 -22 0 -33 30 -53 72 -47 21 3 41
1 44 -4 8 -14 41 -11 47 5 6 15 -11 36 -29 36 -6 0 -14 14 -18 30 -7 38 -45
58 -79 43 -19 -9 -26 -8 -35 8 -7 10 -18 19 -25 19 -8 0 -12 18 -12 55 l0 54
35 -33 c57 -55 115 -79 203 -84 56 -3 77 -8 77 -18 0 -8 5 -14 10 -14 19 0 10
-15 -16 -27 -23 -11 -29 -10 -44 9 -11 13 -23 19 -33 15 -21 -8 -22 -46 -2
-53 11 -5 6 -16 -25 -51 -21 -24 -46 -67 -56 -95 -20 -63 -20 -163 0 -213 11
-26 13 -42 6 -49 -19 -19 -12 -39 13 -32 18 4 28 -1 44 -22 31 -42 131 -91
200 -98 282 -30 451 319 253 521 l-39 40 47 -3 c37 -3 53 1 75 18 35 28 60 76
54 106 -3 18 1 24 17 26 30 4 28 42 -1 46 -13 2 -23 -2 -23 -8 0 -7 -16 2 -35
19 -114 100 -270 -58 -168 -171 16 -18 15 -18 -18 -5 -19 8 -43 17 -54 21 -19
7 -19 8 -2 17 32 18 15 69 -24 69 -29 0 -44 -27 -31 -55 11 -25 11 -25 -37
-25 -27 0 -58 -3 -68 -7 -15 -6 -16 -4 -6 8 9 11 9 19 2 26 -7 7 4 17 37 34
62 30 123 91 154 154 20 41 25 65 25 135 0 73 -4 93 -28 142 -53 109 -146 169
-272 176 l-80 4 0 32 c0 26 -4 31 -26 34 -14 2 -31 -4 -38 -12z m-313 -696
c10 -17 10 -20 -4 -20 -10 0 -13 -6 -10 -18 5 -13 -1 -22 -18 -30 -22 -10 -25
-8 -28 11 -3 19 28 75 42 76 3 1 11 -8 18 -19z m52 -41 c0 -5 -7 -9 -15 -9 -8
0 -15 7 -15 15 0 9 6 12 15 9 8 -4 15 -10 15 -15z"/>
<path d="M8157 7423 c-12 -12 -7 -50 8 -63 17 -14 51 -5 59 16 13 35 -41 73
-67 47z"/>
<path d="M4600 7405 c-26 -32 13 -81 48 -59 34 22 22 74 -18 74 -10 0 -23 -7
-30 -15z"/>
<path d="M5978 7409 c-30 -17 -40 -46 -26 -71 7 -13 11 -30 10 -40 -4 -25 18
-33 25 -9 3 12 13 21 23 21 19 0 33 14 43 43 5 12 -2 26 -18 43 -27 27 -32 28
-57 13z"/>
<path d="M4720 7387 c-21 -11 -25 -20 -25 -55 0 -31 -5 -44 -17 -48 -32 -10
-33 -56 -1 -68 20 -8 56 23 49 41 -4 9 4 13 24 13 17 0 29 -3 29 -7 -4 -22 3
-33 20 -33 25 0 37 31 17 46 -24 17 -19 25 10 18 22 -6 25 -4 22 12 -2 11 -11
18 -20 18 -10 -1 -18 9 -21 25 -4 16 -16 32 -32 39 -31 14 -25 14 -55 -1z"/>
<path d="M4405 7379 c-4 -6 -13 -8 -19 -6 -7 3 -19 2 -26 -3 -18 -11 -4 -44
15 -36 9 3 25 0 35 -7 15 -9 24 -9 39 0 16 10 19 9 19 -13 0 -56 63 -83 102
-44 40 40 12 100 -45 100 -19 0 -37 -5 -40 -11 -5 -6 -13 -3 -22 10 -15 22
-48 28 -58 10z"/>
<path d="M6604 7370 c-34 -13 -64 -59 -64 -97 0 -26 8 -43 34 -69 44 -44 92
-46 136 -6 87 78 2 216 -106 172z"/>
<path d="M5705 7323 c-4 -12 1 -23 13 -34 14 -11 17 -20 11 -30 -15 -24 -10
-65 12 -93 44 -56 140 -20 139 53 -1 47 -52 88 -97 76 -14 -3 -22 -2 -19 4 11
17 -6 41 -29 41 -13 0 -26 -8 -30 -17z"/>
<path d="M6429 7308 c-1 -7 -2 -18 -3 -24 0 -6 -16 -24 -34 -39 -29 -24 -33
-33 -30 -64 3 -25 0 -40 -11 -48 -14 -10 -14 -12 3 -19 12 -5 21 -3 23 3 3 7
14 6 34 -4 25 -12 35 -13 60 -3 35 15 49 37 49 79 0 31 -29 71 -51 71 -8 0 -8
5 1 15 7 8 10 22 6 30 -7 18 -46 20 -47 3z"/>
<path d="M6952 7294 c-25 -17 -31 -71 -10 -92 9 -9 8 -12 -4 -12 -24 0 -48
-28 -48 -56 0 -17 9 -30 30 -42 19 -11 30 -25 30 -39 0 -28 28 -45 52 -32 25
14 24 59 -2 66 -23 6 -24 7 -9 32 8 12 9 23 1 36 -8 16 -5 21 22 34 25 13 32
23 34 53 2 28 -2 40 -20 52 -28 20 -48 20 -76 0z"/>
<path d="M5989 7274 c-17 -21 0 -48 34 -52 18 -2 27 2 32 18 13 41 -38 68 -66
34z"/>
<path d="M8695 7281 c-3 -5 -1 -12 5 -16 6 -4 5 -13 -2 -25 -15 -24 6 -52 36
-48 26 4 35 47 12 60 -9 5 -16 16 -16 23 0 17 -26 20 -35 6z"/>
<path d="M5484 7265 c-4 -8 -17 -15 -29 -15 -25 0 -55 -24 -55 -44 0 -6 -12
-12 -26 -11 -34 0 -53 -27 -35 -49 17 -20 45 -21 61 -2 6 8 18 12 26 9 12 -5
11 -9 -6 -25 -24 -23 -23 -46 3 -62 12 -8 22 -8 35 0 23 15 28 52 7 60 -13 5
-10 10 15 26 26 15 31 24 29 51 -2 18 0 38 5 45 8 14 0 32 -15 32 -5 0 -12 -7
-15 -15z"/>
<path d="M5595 7260 c-4 -12 -1 -27 5 -35 27 -33 78 -5 65 35 -4 14 -15 20
-35 20 -20 0 -31 -6 -35 -20z"/>
<path d="M6205 7225 c-27 -26 -31 -46 -15 -76 9 -17 7 -19 -18 -19 -36 0 -52
-16 -52 -55 0 -59 60 -85 101 -44 16 16 20 29 15 50 -4 24 -2 29 13 29 33 0
64 34 64 70 0 22 -7 39 -22 52 -31 25 -57 23 -86 -7z"/>
<path d="M9290 7230 c-11 -11 -20 -30 -20 -43 0 -28 39 -67 66 -67 27 0 64 40
64 68 0 29 -34 62 -65 62 -14 0 -34 -9 -45 -20z"/>
<path d="M5227 7172 c-21 -23 -21 -42 -3 -67 8 -11 12 -25 9 -32 -8 -20 -51
17 -45 39 3 12 -1 18 -12 18 -9 0 -16 -6 -16 -14 0 -8 -11 -17 -25 -20 -52
-13 -59 -85 -13 -119 36 -27 77 -15 98 28 9 18 23 30 35 30 16 0 20 6 18 28
-1 15 2 27 7 27 5 0 17 11 26 25 15 23 15 27 0 50 -20 30 -56 33 -79 7z"/>
<path d="M5540 7170 c-24 -24 -25 -38 -4 -68 35 -51 120 -2 92 52 -22 41 -57
47 -88 16z"/>
<path d="M6004 7135 c-8 -21 2 -45 19 -45 8 0 20 7 27 15 10 12 10 18 0 30 -7
8 -19 15 -27 15 -7 0 -16 -7 -19 -15z"/>
<path d="M6710 7132 c-24 -11 -43 -32 -59 -65 -24 -49 -23 -65 5 -134 4 -9 -3
-13 -19 -13 -26 0 -67 -40 -67 -65 0 -7 9 -24 21 -39 40 -50 109 -24 109 42 0
30 1 31 26 22 60 -23 127 2 165 62 27 44 22 118 -12 154 -51 55 -108 67 -169
36z"/>
<path d="M5010 7089 c-10 -18 -9 -25 8 -41 27 -28 65 -9 60 30 -4 36 -51 44
-68 11z"/>
<path d="M4902 7078 c-28 -28 -1 -75 37 -63 25 8 34 31 21 56 -12 21 -40 25
-58 7z"/>
<path d="M5294 7056 c-10 -27 1 -51 26 -54 31 -5 53 23 39 49 -12 22 -57 25
-65 5z"/>
<path d="M5994 7056 c-4 -11 -11 -12 -33 -3 -64 24 -135 -47 -113 -113 9 -25
8 -26 -13 -22 -14 2 -31 -4 -44 -17 l-20 -20 -7 22 c-4 12 -2 23 5 25 6 2 11
9 11 16 0 8 -22 12 -66 14 -57 1 -68 -1 -90 -23 -50 -50 -13 -139 59 -139 37
0 77 26 77 51 0 21 14 15 25 -9 8 -17 19 -23 45 -24 19 0 43 -4 53 -9 26 -11
44 9 27 29 -7 9 -16 13 -21 10 -5 -3 -9 6 -9 20 0 23 2 25 26 16 36 -14 70 -3
99 32 27 32 31 58 14 89 -7 15 -7 24 1 34 12 15 6 35 -11 35 -5 0 -12 -6 -15
-14z"/>
<path d="M6323 7043 c-7 -3 -13 -13 -13 -23 0 -19 17 -30 38 -23 6 3 12 13 12
23 0 19 -17 30 -37 23z"/>
<path d="M4975 7024 c-18 -18 -16 -33 7 -47 21 -14 48 -2 48 22 0 30 -34 45
-55 25z"/>
<path d="M7105 6947 c-13 -10 -16 -21 -11 -41 6 -24 11 -27 39 -24 25 2 33 8
35 27 3 15 -3 30 -14 38 -22 16 -26 16 -49 0z"/>
<path d="M7910 6935 c-26 -32 13 -81 48 -59 34 22 22 74 -18 74 -10 0 -23 -7
-30 -15z"/>
<path d="M6439 6911 c-7 -11 -19 -16 -31 -13 -12 3 -18 -1 -18 -12 0 -9 -8
-16 -18 -16 -26 0 -62 -28 -73 -56 -13 -36 11 -87 48 -103 58 -24 122 28 109
89 -5 28 -3 30 22 30 34 0 52 16 52 46 0 48 -67 74 -91 35z m-9 -51 c0 -5 -2
-10 -4 -10 -3 0 -8 5 -11 10 -3 6 -1 10 4 10 6 0 11 -4 11 -10z"/>
<path d="M8604 6919 c-3 -6 -2 -15 4 -21 8 -8 6 -15 -4 -26 -9 -9 -12 -21 -8
-31 4 -9 7 -28 6 -43 -1 -19 4 -28 13 -28 8 0 15 7 15 15 0 8 6 15 14 15 21 0
45 38 39 60 -3 11 -14 22 -24 25 -10 4 -19 15 -19 26 0 20 -24 26 -36 8z"/>
<path d="M8283 6899 c-52 -20 -34 -92 24 -95 44 -1 36 -18 -18 -38 -63 -22
-135 -91 -169 -161 -35 -73 -34 -180 1 -256 54 -114 159 -182 281 -183 l67 -1
-24 -20 c-14 -11 -32 -37 -40 -59 -43 -105 52 -222 163 -201 78 15 122 70 122
155 0 45 -4 55 -37 91 -29 30 -49 41 -83 47 l-45 8 31 16 c17 9 45 30 62 46
l32 30 0 -35 c0 -84 111 -126 169 -64 27 29 28 29 44 10 21 -24 42 -24 67 1
23 23 24 33 10 61 -12 21 -59 26 -77 8 -9 -9 -15 -3 -26 24 -9 19 -24 40 -35
46 -27 14 -78 14 -104 0 -16 -9 -19 -8 -15 3 3 7 13 37 23 67 55 178 -81 371
-274 388 -63 6 -77 18 -84 72 -4 32 -36 52 -65 40z"/>
<path d="M6882 6743 c-7 -3 -18 -16 -23 -30 -11 -30 11 -73 37 -73 11 0 14 -5
10 -16 -3 -9 -6 -19 -6 -22 0 -4 -9 8 -20 26 -37 60 -96 68 -146 18 -37 -37
-42 -65 -19 -110 14 -26 14 -28 -3 -21 -9 4 -42 11 -72 17 -53 10 -120 0 -182
-27 -14 -5 -18 -2 -18 13 0 24 -27 37 -46 21 -18 -15 -18 -33 1 -49 13 -11 10
-18 -24 -55 -22 -24 -46 -56 -54 -72 -17 -32 -38 -136 -33 -156 3 -6 7 -27 10
-46 5 -28 4 -32 -8 -22 -26 21 -79 9 -96 -21 -13 -25 -13 -31 0 -55 12 -21 24
-29 53 -31 32 -3 39 1 56 28 17 29 20 30 25 12 4 -10 26 -39 51 -63 28 -28 41
-47 35 -53 -15 -15 -12 -43 4 -49 15 -6 36 11 36 28 0 8 17 6 53 -6 28 -10 61
-18 71 -19 16 0 17 -3 8 -12 -7 -7 -12 -20 -12 -30 0 -10 -6 -18 -14 -18 -20
0 -37 -25 -30 -44 8 -22 45 -20 51 2 6 26 51 17 55 -11 4 -29 33 -45 56 -31
24 16 21 47 -5 59 -16 7 -23 18 -23 37 0 15 -4 30 -10 33 -18 11 -10 23 19 27
23 3 27 1 23 -14 -2 -10 2 -26 10 -36 8 -9 18 -25 21 -34 3 -10 12 -15 20 -12
19 7 20 91 1 102 -10 5 -1 17 34 42 26 20 62 57 80 84 17 26 32 42 32 35 0 -7
7 -20 15 -29 14 -16 12 -19 -24 -45 -101 -69 -147 -224 -105 -348 21 -61 93
-141 158 -175 69 -35 187 -38 257 -6 101 47 173 145 186 252 l6 53 22 -21 c36
-34 86 -23 112 24 9 17 12 14 18 -22 4 -23 17 -57 30 -76 22 -33 22 -34 4 -39
-25 -7 -25 -37 1 -44 18 -5 18 -7 3 -29 -10 -16 -14 -36 -10 -59 3 -20 2 -33
-2 -31 -4 3 -18 -2 -30 -10 -28 -20 -24 -55 7 -69 12 -5 22 -17 22 -26 0 -29
25 -42 44 -24 19 20 19 20 2 38 -8 8 -12 24 -9 39 4 22 10 26 39 25 38 -1 45
-12 14 -20 -22 -6 -27 -32 -8 -43 6 -4 16 -1 22 7 6 8 22 14 36 14 33 0 42 44
11 52 -16 4 -19 9 -11 19 15 17 16 72 2 86 -20 20 -14 23 43 23 30 0 55 -1 55
-2 0 -1 -5 -14 -12 -28 -7 -17 -19 -25 -35 -25 -21 0 -24 -4 -21 -27 3 -32 36
-44 50 -20 7 14 11 14 37 -1 27 -15 30 -15 55 2 15 9 30 24 33 32 10 27 -7 66
-36 77 l-28 10 38 34 c21 19 45 54 55 78 l16 44 28 -21 c16 -11 36 -18 44 -15
10 4 16 1 16 -9 0 -8 11 -19 24 -23 13 -5 26 -17 29 -25 9 -22 43 -20 59 2 18
25 45 34 52 17 7 -18 36 -8 36 11 0 8 -8 18 -17 21 -36 13 -41 34 -16 59 34
34 30 76 -9 109 -23 20 -38 25 -57 20 -29 -7 -71 -48 -71 -71 0 -14 -2 -14
-16 0 -21 22 -61 20 -81 -4 -16 -18 -17 -17 -38 33 -23 58 -14 84 25 72 25 -8
66 16 75 44 4 13 12 17 27 13 13 -3 24 1 30 11 13 24 41 10 28 -13 -11 -21 14
-55 31 -44 6 3 16 -2 23 -12 8 -11 15 -13 20 -6 4 7 19 3 44 -10 69 -38 142 5
142 82 0 70 -67 116 -131 90 -40 -17 -59 -46 -60 -95 0 -22 -3 -33 -6 -25 -3
8 -12 23 -21 33 -8 9 -10 17 -5 17 17 0 24 29 13 50 -8 15 -5 24 15 44 46 46
19 116 -45 116 -63 0 -95 -79 -46 -117 20 -16 22 -21 11 -37 -8 -10 -11 -25
-8 -33 5 -13 3 -13 -16 -1 -19 11 -24 11 -35 -4 -12 -17 -14 -17 -31 2 -22 24
-58 26 -75 5 -12 -14 -15 -14 -30 0 -21 19 -34 19 -49 1 -16 -20 -3 -46 24
-46 29 0 41 -29 21 -49 -14 -13 -17 -13 -34 2 -29 26 -88 47 -134 47 -47 0
-115 -27 -137 -53 -12 -15 -15 -15 -31 5 -15 19 -20 20 -34 9 -22 -19 -20 -42
5 -48 14 -4 18 -11 13 -22 -3 -9 -11 -32 -16 -51 l-10 -34 -13 32 c-23 53
-101 57 -128 5 l-14 -26 -11 31 c-10 29 -9 31 15 34 34 4 52 32 37 56 -16 26
-50 27 -67 2 -15 -22 -15 -22 -53 20 -51 56 -123 91 -200 98 -52 4 -61 7 -57
21 5 21 -21 45 -42 37 -17 -6 -20 -37 -4 -53 7 -7 4 -12 -10 -16 -18 -4 -20
-1 -15 17 7 28 -18 50 -50 44 -22 -4 -23 -3 -15 26 5 17 9 32 9 34 0 1 14 -8
31 -20 29 -22 31 -22 60 -6 28 17 30 17 49 -2 22 -22 45 -26 55 -9 5 6 13 2
22 -11 22 -31 67 -24 71 12 3 29 -25 52 -52 42 -9 -3 -19 3 -26 16 -10 18 -18
21 -44 17 -27 -4 -34 -1 -48 24 -14 23 -24 29 -52 29 -24 0 -39 -6 -49 -21
-14 -19 -15 -18 -21 18 -11 62 -54 140 -98 178 l-42 35 38 0 c40 0 86 35 86
66 0 16 1 16 18 1 26 -24 69 -22 82 3 15 28 4 57 -26 73 -23 12 -24 15 -10 26
48 40 -12 108 -72 84z m1253 -973 c29 0 12 -34 -18 -37 -30 -2 -55 29 -44 54
9 21 9 21 28 2 10 -10 26 -19 34 -19z m-510 -152 c-19 -11 -30 -5 -21 11 4 6
14 7 22 4 15 -5 14 -7 -1 -15z"/>
<path d="M5994 6635 c-7 -18 3 -35 21 -35 18 0 26 15 19 34 -8 20 -33 21 -40
1z"/>
<path d="M9200 6615 c0 -31 26 -43 47 -22 21 21 9 47 -22 47 -20 0 -25 -5 -25
-25z"/>
<path d="M8742 6598 c-17 -17 -15 -32 7 -52 16 -14 23 -15 41 -6 31 17 24 64
-10 68 -14 2 -31 -3 -38 -10z"/>
<path d="M5802 6573 c-58 -20 -146 -103 -169 -158 -19 -48 -27 -54 -37 -30 -7
18 -57 20 -74 3 -18 -18 -14 -53 8 -73 16 -15 25 -16 44 -7 23 10 23 9 30 -50
3 -33 17 -82 31 -109 22 -45 23 -49 6 -49 -29 0 -45 -25 -31 -49 14 -27 46
-27 60 -1 11 20 11 20 41 -2 19 -14 25 -24 17 -27 -25 -7 -48 -34 -48 -56 0
-27 29 -55 58 -55 28 0 56 42 47 71 -6 19 -4 21 11 15 43 -17 118 -28 147 -22
25 5 29 4 19 -6 -21 -21 -14 -57 12 -70 30 -13 56 -4 63 22 5 18 7 18 29 3 30
-19 68 -6 79 27 9 27 -19 70 -45 70 -16 0 -12 7 21 37 61 55 91 123 97 214 4
69 6 76 23 72 24 -7 49 13 49 38 0 11 6 19 14 19 24 0 41 29 29 49 -9 14 -7
20 8 29 23 15 24 35 3 53 -12 10 -20 10 -35 1 -16 -10 -23 -10 -35 3 -32 31
-84 7 -84 -39 0 -29 22 -48 55 -48 15 0 25 -6 25 -14 0 -8 -8 -14 -19 -14 -10
0 -24 -7 -31 -15 -11 -13 -17 -9 -41 33 -55 97 -151 152 -264 151 -38 0 -89
-7 -113 -16z m503 -93 c3 -5 1 -10 -4 -10 -6 0 -11 5 -11 10 0 6 2 10 4 10 3
0 8 -4 11 -10z m-262 -499 c-4 -17 -8 -18 -24 -8 -18 11 -18 12 -1 19 27 11
30 9 25 -11z"/>
<path d="M9156 6534 c-9 -8 -16 -22 -16 -29 0 -7 7 -21 16 -29 30 -30 74 -13
74 29 0 42 -44 59 -74 29z"/>
<path d="M9096 6414 c-19 -19 -20 -25 -3 -48 19 -26 61 -18 65 12 7 44 -32 67
-62 36z"/>
<path d="M8992 6318 c-32 -32 18 -87 53 -58 28 23 12 70 -25 70 -9 0 -21 -5
-28 -12z"/>
<path d="M5430 6255 c-7 -8 -10 -25 -7 -37 6 -22 4 -23 -39 -19 -151 12 -264
-147 -208 -294 5 -13 4 -16 -4 -11 -17 10 -49 -2 -56 -20 -17 -45 49 -74 77
-34 14 20 14 20 36 -4 19 -21 20 -24 6 -30 -10 -3 -15 -15 -13 -28 4 -32 52
-33 56 -1 3 19 7 20 35 12 91 -26 188 13 238 96 11 16 19 24 19 18 0 -7 11
-13 25 -13 32 0 36 39 5 47 -16 4 -20 14 -20 52 -1 60 -28 118 -74 159 l-37
33 22 18 c21 16 22 22 11 45 -13 30 -52 36 -72 11z"/>
<path d="M7368 6174 c-31 -16 -48 -43 -48 -73 0 -19 -2 -20 -20 -9 -37 23 -77
-24 -50 -57 16 -19 44 -19 59 -1 10 12 16 10 38 -10 33 -31 90 -32 127 -3 14
11 26 16 26 10 0 -6 10 -15 21 -22 18 -9 25 -7 43 10 28 28 12 56 -33 56 -18
0 -30 4 -27 10 8 22 -23 74 -53 89 -37 19 -48 19 -83 0z"/>
<path d="M8737 6112 c-22 -24 -21 -65 1 -85 40 -36 102 -9 102 45 0 51 -69 78
-103 40z"/>
<path d="M6236 6004 c-22 -22 -20 -60 5 -78 l21 -14 -20 -11 c-27 -14 -32 -14
-32 4 0 20 -39 19 -47 -1 -4 -10 1 -22 10 -29 16 -11 16 -15 2 -41 -31 -60 -9
-145 46 -185 60 -43 141 -34 194 21 28 29 29 29 42 10 17 -24 56 -26 77 -4 22
21 20 47 -5 69 -17 16 -25 17 -49 8 -22 -8 -27 -8 -24 2 3 7 0 31 -5 53 -14
50 -65 97 -116 106 -28 6 -35 10 -26 19 18 18 13 65 -8 77 -27 14 -47 13 -65
-6z"/>
<path d="M8344 5896 c-72 -62 6 -179 89 -134 31 16 46 39 47 70 0 40 -9 57
-41 73 -39 21 -64 19 -95 -9z"/>
<path d="M5805 5884 c-79 -20 -154 -70 -194 -131 -24 -36 -29 -40 -34 -23 -3
11 -17 25 -31 31 -21 10 -30 9 -51 -5 -53 -35 -10 -119 49 -96 20 7 21 5 21
-84 0 -82 3 -96 30 -145 36 -65 106 -123 176 -146 99 -33 228 -6 302 63 l27
26 0 -40 c0 -45 26 -78 71 -89 34 -8 87 18 98 48 8 19 10 17 21 -23 25 -93 82
-165 164 -208 44 -23 63 -27 141 -27 100 0 156 20 216 76 36 33 39 34 39 14 0
-23 34 -36 55 -21 29 21 17 46 -34 73 -1 1 0 7 4 13 5 8 11 5 20 -7 12 -15 17
-16 35 -5 14 9 26 10 40 2 67 -36 126 50 66 97 -23 19 -23 20 -5 31 19 12 26
66 11 88 -12 18 -52 36 -68 30 -10 -4 -14 2 -14 19 0 20 -5 25 -24 25 -14 0
-28 -5 -32 -11 -3 -6 -14 6 -24 28 -23 49 -66 95 -125 132 -25 16 -42 32 -36
35 5 4 12 2 16 -4 10 -15 35 -12 35 5 0 8 -4 15 -10 15 -5 0 -10 9 -10 19 0
25 -35 50 -61 44 -22 -6 -36 -48 -21 -66 8 -9 -9 -12 -76 -12 -78 0 -93 -3
-140 -29 -29 -17 -68 -47 -87 -67 -31 -34 -35 -36 -40 -18 -7 20 -45 35 -70
26 -20 -8 -30 -54 -15 -72 7 -8 25 -15 40 -15 l27 0 -16 -60 c-15 -57 -16 -59
-28 -36 -16 31 -74 52 -102 37 -30 -17 -31 -14 -11 32 29 67 34 126 16 197 -9
35 -22 70 -28 78 -9 10 -9 15 2 22 7 5 10 15 6 26 -5 13 -10 14 -18 6 -8 -8
-21 -2 -51 24 -22 20 -60 45 -85 56 -45 20 -147 32 -187 22z m1123 -493 c-7
-9 -14 -18 -15 -20 -2 -2 -3 8 -3 22 0 20 4 25 15 21 13 -5 13 -9 3 -23z m42
-101 c5 0 1 -9 -10 -20 -11 -11 -20 -26 -20 -32 0 -7 -11 -13 -25 -13 -19 0
-24 4 -19 15 3 8 9 34 11 58 l6 42 23 -25 c13 -14 28 -25 34 -25z"/>
<path d="M4983 5796 c-58 -19 -99 -50 -127 -99 -55 -93 -43 -189 33 -268 89
-91 219 -93 307 -5 l42 41 5 -43 c8 -77 66 -132 144 -139 158 -13 227 204 91
287 -18 11 -42 20 -53 20 -18 1 -18 2 -4 13 9 7 21 22 27 34 21 39 -13 93 -60
93 -63 0 -92 -80 -43 -118 l25 -20 -24 -6 c-13 -3 -38 -19 -55 -35 l-31 -29 6
37 c23 147 -139 283 -283 237z"/>
<path d="M7410 5660 c-39 -39 -14 -100 43 -100 55 0 79 73 35 104 -30 21 -54
20 -78 -4z"/>
<path d="M7956 5659 c-46 -36 -26 -110 34 -124 39 -9 80 27 80 70 0 36 -36 75
-70 75 -10 0 -29 -9 -44 -21z"/>
<path d="M4751 5556 c-7 -8 -11 -23 -9 -33 2 -12 -4 -19 -20 -21 -32 -5 -56
-45 -48 -82 4 -22 2 -30 -9 -30 -23 0 -46 -40 -35 -61 14 -24 13 -26 -11 -32
-15 -4 -20 -12 -17 -33 7 -58 73 -57 73 2 0 16 10 38 22 50 13 14 20 29 17 38
-5 12 1 16 24 16 21 0 37 8 51 26 25 32 26 52 6 81 -10 14 -12 24 -5 28 16 10
12 52 -6 59 -21 8 -20 8 -33 -8z"/>
<path d="M7340 5520 c0 -5 -18 -10 -41 -10 -82 0 -128 -90 -79 -153 40 -50
124 -44 158 11 14 25 19 27 30 16 7 -8 23 -14 35 -14 13 0 28 -5 35 -12 9 -9
15 -9 24 0 9 9 10 15 2 20 -7 4 -12 20 -12 36 0 29 -23 56 -49 56 -7 0 -21 -8
-31 -18 -18 -18 -19 -18 -35 9 -8 15 -13 37 -10 48 4 15 1 21 -11 21 -9 0 -16
-4 -16 -10z"/>
<path d="M7094 5408 c-9 -28 20 -52 47 -37 22 11 24 30 7 47 -19 19 -46 14
-54 -10z"/>
<path d="M4772 5350 c-50 -31 -74 -76 -69 -132 4 -45 3 -46 -19 -36 -54 25
-115 -33 -93 -89 6 -17 5 -23 -6 -23 -7 0 -20 -9 -28 -20 -17 -25 -30 -15 -14
11 9 14 9 21 0 30 -16 16 -43 4 -43 -21 0 -11 -4 -20 -10 -20 -19 0 -50 -40
-50 -63 0 -27 28 -57 54 -57 16 0 15 -3 -3 -26 -33 -41 -28 -96 10 -128 41
-35 83 -34 120 3 31 31 38 75 18 113 -12 23 -75 52 -90 42 -8 -4 -7 0 0 14 6
11 11 29 11 40 0 13 7 18 22 18 14 -1 27 7 32 21 7 15 19 21 44 21 19 0 39 5
45 11 7 7 14 4 21 -12 22 -42 76 -29 76 19 0 15 6 24 16 24 14 0 14 -3 4 -16
-11 -12 -10 -18 3 -31 13 -14 19 -14 32 -3 8 7 13 20 10 29 -3 11 7 21 35 33
79 33 108 144 54 208 -52 61 -122 77 -182 40z m-12 -240 c0 -4 -7 -10 -15 -14
-10 -4 -15 1 -15 14 0 13 5 18 15 14 8 -4 15 -10 15 -14z"/>
<path d="M5139 5363 c-1 -4 -1 -11 0 -15 0 -5 -6 -8 -14 -8 -46 0 -95 -51 -95
-99 0 -59 58 -107 114 -97 38 7 61 29 76 73 7 19 18 30 28 29 11 -1 17 6 17
19 0 15 -6 20 -23 19 -25 -1 -83 49 -79 68 1 6 -4 13 -10 15 -7 3 -14 1 -14
-4z"/>
<path d="M7412 5338 c-16 -16 -15 -23 4 -42 21 -22 56 -3 52 27 -3 25 -37 34
-56 15z"/>
<path d="M7320 5306 c-27 -33 18 -72 48 -42 13 13 14 20 6 34 -15 23 -38 26
-54 8z"/>
<path d="M7139 5298 c-29 -22 -31 -52 -8 -82 27 -34 64 -32 93 7 19 26 19 30
5 55 -17 31 -64 41 -90 20z"/>
<path d="M6002 5264 c-14 -10 -22 -26 -22 -45 0 -24 -4 -29 -24 -29 -32 0 -56
-25 -56 -59 0 -48 46 -74 90 -51 16 9 22 6 34 -18 19 -37 63 -56 97 -43 32 12
47 31 55 69 5 26 1 36 -25 63 -23 23 -38 30 -56 27 -21 -4 -23 -2 -15 13 29
53 -29 108 -78 73z m38 -109 c-12 -15 -30 -12 -30 6 0 5 10 9 21 9 18 0 19 -2
9 -15z"/>
<path d="M5413 5256 c-56 -25 -82 -114 -47 -164 23 -34 72 -55 111 -49 l34 6
-21 -34 c-11 -18 -23 -56 -27 -83 l-6 -50 -29 59 c-95 189 -344 227 -494 74
-29 -29 -58 -69 -65 -89 -12 -34 -29 -49 -29 -26 0 23 -50 60 -80 60 -44 0
-70 -16 -86 -56 -37 -87 65 -162 140 -103 l26 20 0 -33 c1 -29 19 -92 45 -151
5 -13 4 -16 -8 -11 -26 10 -57 -14 -57 -44 0 -34 16 -52 46 -52 23 0 57 37 48
52 -11 18 10 6 48 -27 135 -115 371 -71 460 86 20 35 23 37 38 24 25 -22 52
-8 49 24 -2 14 1 34 7 43 9 17 11 17 32 2 22 -15 22 -17 5 -29 -14 -11 -16
-18 -7 -32 15 -24 37 -23 48 2 7 17 18 20 75 20 85 0 148 34 187 100 54 93 41
190 -37 266 l-47 45 29 11 c52 20 61 97 16 128 -72 50 -161 -32 -111 -103 15
-22 15 -22 -28 -22 -24 -1 -60 -7 -81 -15 -34 -11 -38 -11 -33 2 3 8 6 29 6
46 0 24 6 35 23 42 27 12 29 34 3 49 -14 9 -20 8 -29 -5 -10 -16 -13 -15 -36
2 -36 26 -80 32 -118 15z m71 -491 c-9 -6 -14 -19 -12 -29 1 -11 -2 -21 -8
-23 -8 -3 -9 9 -4 39 5 24 6 57 4 73 -5 28 -4 28 15 -9 19 -35 19 -40 5 -51z"/>
<path d="M6202 5224 c-30 -21 -29 -59 3 -80 13 -8 29 -13 35 -9 6 4 20 -1 31
-11 19 -17 20 -17 37 0 16 16 16 18 -5 36 -13 10 -23 23 -23 29 0 13 -36 51
-48 51 -4 0 -18 -7 -30 -16z"/>
<path d="M5205 5166 c-17 -12 -17 -16 -6 -30 8 -9 20 -15 28 -12 7 3 22 -3 33
-14 24 -24 34 -25 54 -4 36 36 0 87 -45 64 -14 -8 -24 -8 -33 -1 -9 8 -18 7
-31 -3z"/>
<path d="M6213 5065 c-15 -12 -16 -17 -5 -35 11 -17 9 -24 -8 -42 -11 -12 -20
-35 -20 -50 0 -36 40 -78 73 -78 32 0 77 36 77 62 0 20 1 20 18 5 10 -10 28
-17 40 -17 25 0 57 43 46 61 -5 8 -2 10 8 6 17 -6 38 10 38 29 0 18 -33 27
-45 12 -5 -8 -26 -14 -45 -13 -26 0 -37 -6 -46 -23 l-11 -23 -17 26 c-9 14
-25 25 -36 25 -15 0 -20 7 -20 29 0 34 -20 45 -47 26z"/>
<path d="M5927 5012 c-10 -10 -17 -28 -17 -40 0 -25 43 -57 65 -48 12 4 15 -3
15 -34 0 -58 35 -95 90 -95 85 0 121 95 60 157 -31 31 -64 35 -113 13 -13 -5
-16 -4 -11 8 7 19 -29 57 -54 57 -11 0 -26 -8 -35 -18z"/>
<path d="M4317 4804 c-4 -4 -7 -16 -7 -26 0 -14 6 -19 23 -16 14 2 22 10 22
23 0 20 -25 32 -38 19z"/>
<path d="M4637 4720 c-14 -11 -29 -30 -32 -41 l-7 -21 -19 21 c-26 28 -73 28
-93 -1 -21 -30 -20 -54 4 -78 26 -26 58 -25 87 2 20 19 23 19 23 4 0 -9 12
-29 28 -44 15 -15 27 -38 27 -52 0 -18 6 -26 23 -28 21 -3 27 6 23 36 -1 6 7
12 17 12 27 0 67 34 82 69 16 39 6 76 -30 112 -35 36 -94 40 -133 9z"/>
<path d="M4373 4604 c-4 -11 0 -22 12 -30 21 -16 14 -28 -17 -29 -25 0 -44
-26 -35 -49 9 -24 58 -21 64 4 3 11 12 20 20 20 9 0 13 -6 10 -14 -3 -8 1 -20
9 -27 12 -10 18 -9 32 5 16 16 16 18 0 30 -10 7 -18 20 -18 29 0 9 -6 20 -12
24 -7 4 -13 17 -13 28 0 26 -42 34 -52 9z"/>
<path d="M4232 4589 c-12 -5 -27 -21 -33 -36 -22 -58 56 -108 100 -64 48 48
-3 124 -67 100z"/>
<path d="M4869 4491 c-36 -36 -39 -86 -8 -125 11 -14 16 -26 10 -26 -6 0 -11
-7 -11 -15 0 -17 25 -20 35 -5 3 6 17 10 30 10 53 0 105 47 105 94 0 29 -24
68 -51 82 -43 22 -77 17 -110 -15z"/>
<path d="M4465 4456 c-31 -14 -84 -66 -103 -101 -11 -20 -11 -20 -12 1 0 30
-41 64 -76 64 -40 0 -71 -24 -79 -60 -6 -25 -9 -28 -24 -18 -39 24 -81 -23
-55 -60 25 -37 74 -22 74 21 0 18 2 17 20 -6 28 -36 65 -42 105 -18 25 14 32
16 28 5 -10 -26 18 -111 49 -149 78 -93 227 -99 307 -11 18 19 27 23 32 14 7
-10 11 -10 21 1 11 11 10 15 -3 23 -14 10 -14 15 -1 52 8 23 11 57 8 77 -6 34
-5 35 23 31 22 -3 32 1 40 17 25 47 -42 87 -70 43 -11 -17 -15 -16 -48 21 -20
22 -50 46 -68 54 -41 17 -129 16 -168 -1z"/>
<path d="M5171 4456 c-6 -8 -20 -12 -30 -9 -20 5 -51 -20 -51 -41 0 -38 72
-48 78 -12 2 11 13 27 24 36 17 14 18 17 5 28 -11 10 -17 9 -26 -2z"/>
<path d="M4883 4264 c-3 -8 2 -23 11 -32 15 -15 17 -15 32 0 21 21 11 48 -16
48 -11 0 -23 -7 -27 -16z"/>
<path d="M4152 4218 c-15 -15 -15 -40 1 -57 10 -11 9 -14 -1 -18 -32 -12 -73
-58 -82 -93 -24 -90 41 -180 131 -180 24 0 30 -3 25 -16 -8 -22 11 -54 32 -54
38 0 57 50 27 68 -14 7 -13 11 6 28 22 18 22 18 15 0 -4 -11 0 -29 9 -42 21
-32 60 -31 81 1 15 23 15 27 -1 51 -13 20 -23 25 -45 22 -28 -4 -28 -4 -14 23
29 58 12 124 -46 172 -17 14 -29 32 -28 38 2 7 -5 15 -14 17 -11 2 -18 -2 -18
-12 0 -9 -7 -16 -15 -16 -13 0 -13 3 -3 20 24 37 -29 79 -60 48z"/>
<path d="M4397 4073 c-4 -3 -2 -12 4 -19 7 -8 7 -14 -1 -19 -16 -10 -12 -43 8
-54 39 -21 71 31 37 59 -8 7 -15 19 -15 26 0 14 -22 19 -33 7z"/>
<path d="M3962 3865 c-69 -30 -78 -142 -14 -182 15 -9 29 -18 31 -20 3 -2 -4
-10 -15 -17 -17 -13 -21 -12 -37 5 -32 34 -77 18 -77 -27 0 -29 24 -47 55 -42
18 4 26 0 31 -14 8 -28 45 -58 70 -58 12 0 33 9 48 21 33 26 36 77 6 104 -25
23 -25 32 1 40 25 8 59 61 59 93 0 39 -29 83 -65 98 -42 17 -51 17 -93 -1z"/>
<path d="M4165 3709 c-4 -5 -4 -13 -1 -16 3 -3 1 -12 -5 -19 -15 -19 -4 -44
20 -44 21 0 36 26 21 35 -6 4 -10 15 -10 25 0 22 -16 35 -25 19z"/>
<path d="M3910 3505 c-7 -8 -18 -15 -26 -15 -23 0 -26 -20 -3 -28 22 -8 21 -9
-9 -20 -54 -19 -52 -94 2 -108 48 -12 89 34 67 75 -9 15 -7 20 8 24 31 8 43
40 25 65 -18 26 -46 28 -64 7z"/>
<path d="M3795 3486 c-24 -17 -15 -50 14 -54 39 -6 56 39 22 57 -13 7 -23 6
-36 -3z"/>
<path d="M3720 3282 c-77 -77 10 -199 107 -148 83 42 59 160 -34 173 -37 5
-46 2 -73 -25z"/>
<path d="M3664 3106 c-11 -29 0 -51 26 -51 21 0 25 5 25 30 0 24 -5 31 -23 33
-13 2 -24 -3 -28 -12z"/>
<path d="M3744 3076 c-10 -26 4 -48 28 -44 17 2 23 10 23 28 0 18 -6 26 -23
28 -13 2 -25 -3 -28 -12z"/>
<path d="M3674 3016 c-3 -9 -14 -16 -24 -16 -19 0 -34 -25 -24 -41 8 -14 42
-11 51 4 4 8 16 17 26 20 23 8 18 40 -6 45 -9 2 -20 -4 -23 -12z"/>
<path d="M3720 2956 c-27 -33 18 -72 48 -42 13 13 14 20 6 34 -15 23 -38 26
-54 8z"/>
<path d="M3617 2888 c-2 -7 0 -21 4 -30 7 -12 4 -18 -11 -23 -24 -8 -50 -54
-50 -89 0 -33 44 -83 80 -91 33 -7 84 15 100 44 27 52 -2 132 -53 145 -17 4
-23 12 -23 28 1 16 -5 24 -20 26 -12 2 -24 -3 -27 -10z"/>
</g>
</svg>
